<?xml version="1.0" encoding="UTF-8" standalone="no"?>

<svg
   xmlns:dc="http://purl.org/dc/elements/1.1/"
   xmlns:cc="http://creativecommons.org/ns#"
   xmlns:rdf="http://www.w3.org/1999/02/22-rdf-syntax-ns#"
   xmlns:svg="http://www.w3.org/2000/svg"
   xmlns="http://www.w3.org/2000/svg"
   xmlns:sodipodi="http://sodipodi.sourceforge.net/DTD/sodipodi-0.dtd"
   xmlns:inkscape="http://www.inkscape.org/namespaces/inkscape"
   id="svg4162"
   version="1.1"
   inkscape:version="0.91 r13725"
   width="451.875"
   height="602.8125"
   viewBox="0 0 451.875 602.8125"
   sodipodi:docname="ComicCharacter256.svg">
  <metadata
     id="metadata4168">
    <rdf:RDF>
      <cc:Work
         rdf:about="">
        <dc:format>image/svg+xml</dc:format>
        <dc:type
           rdf:resource="http://purl.org/dc/dcmitype/StillImage" />
        <dc:title></dc:title>
      </cc:Work>
    </rdf:RDF>
  </metadata>
  <defs
     id="defs4166" />
  <sodipodi:namedview
     pagecolor="#ffffff"
     bordercolor="#666666"
     borderopacity="1"
     objecttolerance="10"
     gridtolerance="10"
     guidetolerance="10"
     inkscape:pageopacity="0"
     inkscape:pageshadow="2"
     inkscape:window-width="1600"
     inkscape:window-height="837"
     id="namedview4164"
     showgrid="false"
     inkscape:zoom="1.1114567"
     inkscape:cx="225.9375"
     inkscape:cy="301.40625"
     inkscape:window-x="-8"
     inkscape:window-y="-8"
     inkscape:window-maximized="1"
     inkscape:current-layer="svg4162" />
  <path
     style="fill:#000000"
     d="m 394.6875,601.90662 c -2.32031,-0.39181 -6.75,-1.66777 -9.84375,-2.83549 -5.52163,-2.0841 -11.92128,-2.88125 -34.21875,-4.26237 -12.39053,-0.76746 -17.06043,-2.34286 -18.53644,-6.25324 -0.60055,-1.59104 -0.87262,-3.24759 -0.60461,-3.68124 0.26801,-0.43365 -1.23807,-1.47881 -3.34685,-2.32257 -3.74882,-1.49998 -6.5746,-5.0815 -6.5746,-8.33296 0,-3.15749 -2.78178,-6.87552 -5.60871,-7.49642 -3.9254,-0.86216 -3.94127,-3.7417 -0.0163,-2.95671 2.16875,0.43376 2.8125,0.22591 2.8125,-0.90808 0,-0.80882 -0.84375,-1.69122 -1.875,-1.9609 -1.03125,-0.26968 -1.875,-0.863 -1.875,-1.31848 2e-5,-0.45549 -0.42186,-0.82816 -0.93748,-0.82816 -1.37371,0 -4.6875,3.54377 -4.6875,5.0128 0,1.82104 2.93369,4.92175 5.39062,5.69752 1.16016,0.36632 2.10938,1.22528 2.10938,1.90881 0,1.78116 -2.55885,2.51911 -3.17424,0.91543 -0.2843,-0.74088 -1.09758,-1.34706 -1.80729,-1.34706 -2.07559,0 -4.5071,-3.33593 -4.59136,-6.29916 -0.0559,-1.96624 0.89438,-3.70982 3.37253,-6.18798 3.40519,-3.4052 7.13786,-4.58309 7.13786,-2.25246 0,0.65885 0.73828,1.90326 1.64062,2.76535 0.90235,0.86211 2.1339,2.04463 2.73678,2.62783 0.60289,0.58319 2.38375,2.24735 3.95746,3.69811 1.93122,1.78033 3.06404,3.90554 3.48498,6.53796 0.45913,2.87125 0.98113,3.76304 1.97859,3.38028 0.7452,-0.28596 1.74229,-0.51993 2.21575,-0.51993 0.47344,0 0.86082,-0.97394 0.86082,-2.16431 0,-3.17327 4.81329,-15.81762 9.70395,-25.49194 2.34598,-4.64063 5.08134,-10.75781 6.07859,-13.59375 3.92127,-11.15123 5.79453,-16.84501 9.09891,-27.65625 3.96208,-12.9631 5.0645,-16.28671 8.39599,-25.3125 1.33225,-3.60938 3.48448,-9.72656 4.78273,-13.59375 2.4158,-7.19612 7.91143,-18.88988 16.30181,-34.6875 3.76848,-7.09538 4.67958,-9.66872 4.48101,-12.65625 -0.24116,-3.62835 -0.42431,-3.8193 -5.64583,-5.88614 -5.25002,-2.07813 -21.18079,-6.40484 -33.50966,-9.10105 -8.53729,-1.86703 -19.31391,-4.8796 -24.84375,-6.94498 -2.57813,-0.96292 -6.16406,-2.24619 -7.96875,-2.85171 -39.44691,-13.23538 -51.2238,-16.93487 -53.91019,-16.93487 -3.50671,0 -17.12156,6.56429 -27.74442,13.37675 -3.40222,2.18185 -8.58857,5.44356 -11.52522,7.24825 -9.13678,5.6149 -23.1246,16.57961 -33.24761,26.06198 -5.33978,5.00185 -10.79518,9.67516 -12.12311,10.38514 -1.32792,0.70999 -5.47534,3.55455 -9.21648,6.32126 -3.74115,2.76671 -7.98888,5.55194 -9.43941,6.18939 -1.45052,0.63745 -2.93551,1.62523 -3.29997,2.19508 -0.72217,1.1291 -3.26995,2.86701 -16.52142,11.26972 -4.81062,3.0504 -11.22573,7.55009 -14.25581,9.9993 -3.03007,2.44922 -5.97333,4.45313 -6.54056,4.45313 -1.58287,0 -24.836719,24.00343 -30.42548,31.40625 -2.724901,3.60937 -5.766058,8.25 -6.758127,10.3125 -3.284715,6.82889 -8.782605,16.21021 -10.179217,17.36929 C 75.618964,535.02839 75,536.46619 75,537.59564 c 0,1.12946 -1.303288,3.29265 -2.896196,4.80709 -1.592908,1.51444 -3.539508,4.01914 -4.325777,5.56602 -0.786269,1.54687 -2.443535,3.89803 -3.682813,5.22478 -6.398974,6.85066 -10.010472,19.62633 -9.715108,34.36719 0.114672,5.72297 -1.091751,7.23679 -7.957796,9.98546 -6.988065,2.79751 -9.422841,2.9161 -19.23481,0.93686 -3.867188,-0.78007 -9.923663,-1.75462 -13.458836,-2.16566 -6.7956694,-0.79014 -8.4483911,-1.95934 -7.6397608,-5.4047 0.3667374,-1.56257 -0.1285648,-2.35014 -2.0635797,-3.28125 -3.46424384,-1.66696 -4.42046553,-6.33742 -2.5061612,-12.24081 0.7942138,-2.44921 1.8723392,-4.45312 2.3958341,-4.45312 2.4444371,0 6.5154426,-4.31267 9.1223946,-9.66392 2.623021,-5.38423 6.665161,-11.12508 17.677445,-25.10636 12.663807,-16.07808 15.964958,-20.48683 18.189351,-24.29222 1.356309,-2.32031 3.985846,-6.47599 5.843415,-9.23483 1.857569,-2.75885 3.377398,-5.36534 3.377398,-5.79219 0,-1.10876 6.361007,-11.78848 10.314118,-17.31673 1.843551,-2.57813 5.161238,-7.76929 7.372638,-11.53593 5.535341,-9.42823 14.371338,-17.75201 39.779314,-37.47332 7.57628,-5.88061 18.4712,-15.30243 18.47531,-15.97728 0.002,-0.35116 2.63886,-3.38262 5.85938,-6.73657 3.22051,-3.35395 9.61221,-10.52583 14.20377,-15.9375 4.59155,-5.41167 11.17613,-12.79253 14.63241,-16.4019 3.45628,-3.60938 7.8468,-8.67188 9.75672,-11.25 1.90992,-2.57813 6.92689,-8.33681 11.14883,-12.79709 21.93102,-23.16905 25.89791,-28.34696 28.26645,-36.89571 0.85636,-3.09083 1.90313,-6.46345 2.32616,-7.4947 0.42303,-1.03125 2.76709,-8.41406 5.20901,-16.40625 2.44191,-7.99219 5.8201,-17.48438 7.50707,-21.09375 2.72786,-5.83641 3.55135,-9.09571 5.59158,-22.13096 0.43648,-2.78876 -0.20448,-4.75929 -3.65941,-11.25 -2.30372,-4.32797 -6.20774,-11.66591 -8.67561,-16.30654 -2.46788,-4.64063 -5.92845,-11.8125 -7.69017,-15.9375 -3.09282,-7.24168 -3.20629,-7.93591 -3.29473,-20.15625 -0.11456,-15.83004 0.45145,-19.25197 4.07165,-24.61608 2.52163,-3.73636 3.83883,-4.64942 10.1485,-7.03473 9.56848,-3.61727 19.94925,-5.28651 25.78384,-4.14607 2.56401,0.50117 4.6882,0.52174 4.98084,0.0482 0.28064,-0.45409 0.49184,-5.30366 0.46932,-10.77684 -0.0429,-10.43858 1.70839,-18.50478 4.22764,-19.4715 1.9116,-0.73355 1.62152,-2.44052 -0.41474,-2.44052 -0.9543,0 -3.04083,-0.45518 -4.63673,-1.01151 -2.32626,-0.81094 -3.20478,-1.92417 -4.43033,-5.61398 -0.84078,-2.53135 -1.8804,-4.81983 -2.31028,-5.08549 -1.37572,-0.8502 -7.51255,-12.663816 -7.51255,-14.4619 0,-0.991078 0.87262,-1.961583 2.03769,-2.266255 2.61772,-0.684549 3.86759,0.106556 3.14468,1.990424 -0.84206,2.194395 3.1334,11.283771 5.22568,11.947841 0.97869,0.31062 1.81461,1.06369 1.85757,1.67347 0.30419,4.31677 0.83199,5.7262 2.93002,7.82423 2.33231,2.3323 2.49099,2.35507 8.82407,1.26602 12.50412,-2.15024 13.97819,-2.50695 17.08304,-4.13386 4.02655,-2.10989 5.07185,-1.10471 1.6711,1.60695 l -2.62163,2.09041 3.36139,1.60293 c 5.2566,2.5067 4.29307,3.80051 -2.26361,3.03952 -3.68518,-0.42771 -5.625,-0.31688 -5.625,0.32137 0,0.53582 0.43482,1.24295 0.96626,1.5714 0.55098,0.34053 0.71625,1.9299 0.38455,3.69805 -0.49624,2.64518 -0.21132,3.35772 1.93887,4.84877 1.38634,0.96135 4.06095,3.02596 5.94359,4.58801 3.17506,2.63438 3.91954,2.82935 10.27866,2.69178 8.05703,-0.17431 9.5432,-1.25721 11.29989,-8.23365 2.64545,-10.50603 9.82745,-19.91532 20.6399,-27.040774 1.88525,-1.242394 2.58529,-2.655722 3.01832,-6.093754 0.46619,-3.701311 0.68973,-4.104405 1.29125,-2.328491 0.64576,1.906553 2.61391,2.614664 2.43402,0.875726 -0.0386,-0.373828 -0.0703,-1.471615 -0.0703,-2.439527 0,-1.539348 -0.55793,-1.701913 -4.45313,-1.297503 -3.63369,0.377261 -5.22942,1.198685 -8.67187,4.463971 -5.63842,5.348247 -9.40633,7.332522 -9.34537,4.921497 0.0163,-0.644531 1.80927,-2.254388 3.98438,-3.577465 4.93548,-3.002155 7.16853,-6.767218 5.55037,-9.358294 -1.48846,-2.383412 -1.42507,-3.704866 0.17774,-3.704866 0.71754,0 1.56932,1.054687 1.89285,2.34375 0.4703,1.87379 1.17503,2.34375 3.51458,2.34375 4.07017,0 10.88826,-3.612403 13.22182,-7.005284 1.07374,-1.561156 2.9545,-3.682216 4.17945,-4.713466 1.9976,-1.681715 2.27831,-2.849304 2.72306,-11.326442 0.48293,-9.205067 0.43074,-9.528821 -2.00193,-12.419894 -2.27575,-2.704572 -2.84472,-2.917429 -6.4005,-2.394471 -2.14648,0.31569 -5.45669,1.618365 -7.35601,2.894833 -5.43856,3.65508 -6.65008,9.578848 -1.97111,9.637868 0.62594,0.0079 2.20797,1.588851 3.51562,3.513233 4.4379,6.530955 2.5035,14.313623 -3.55768,14.313623 -1.41777,0 -1.6515,-0.464322 -1.1798,-2.34375 0.33922,-1.351543 0.18381,-2.34375 -0.36711,-2.34375 -0.52545,0 -0.95536,-1.054688 -0.95536,-2.34375 0,-2.35506 2.13053,-3.268147 3.28125,-1.40625 0.31867,0.515625 1.16538,0.9375 1.88156,0.9375 1.04029,0 1.10459,-0.566723 0.31975,-2.818144 -1.24814,-3.580418 -4.93316,-6.52499 -7.36871,-5.888081 -4.03417,1.054961 -1.50873,-8.402765 3.65401,-13.684176 1.6058,-1.642711 2.91964,-3.574878 2.91964,-4.293708 0,-0.718829 0.69007,-1.997029 1.53348,-2.840444 1.14449,-1.144486 1.26339,-1.803572 0.46875,-2.598215 -0.5856,-0.585603 -1.09715,-1.929576 -1.13678,-2.986607 -0.0396,-1.057031 -0.65555,-3.609375 -1.36873,-5.671875 -1.2931,-3.739655 -1.29542,-3.731896 -0.83751,2.8125 0.47712,6.819157 -0.37628,11.822358 -2.11544,12.402077 -0.66674,0.222244 -0.84919,-1.092244 -0.53658,-3.865705 0.43956,-3.89982 0.33285,-4.16563 -1.48194,-3.691053 -2.24068,0.58595 -7.22746,6.672528 -6.25798,7.63813 0.35427,0.352854 1.46212,-0.367432 2.46187,-1.600633 0.99976,-1.233201 2.07229,-1.987643 2.38339,-1.676537 0.93928,0.939274 -1.41761,8.789946 -3.6642,12.205286 -1.15752,1.7597 -2.61181,3.990101 -3.23177,4.956445 -1.0774,1.679353 -1.20919,1.654044 -2.98276,-0.572754 -2.3277,-2.922542 -3.50924,-1.955543 -1.83463,1.501505 0.79727,1.645872 2.35468,2.877493 4.2578,3.367139 2.96226,0.762144 4.69103,2.269352 3.71847,3.241909 -0.74133,0.741339 -7.18794,-1.565631 -7.18794,-2.572264 0,-0.475637 -0.61958,-0.864795 -1.37683,-0.864795 -0.83868,0 -1.1659,0.549646 -0.8372,1.40625 0.54057,1.408697 -1.06752,2.02618 -1.83112,0.703125 -0.77985,-1.351209 1.20434,-13.650256 2.44234,-15.138934 0.68685,-0.82593 2.2777,-3.541187 3.53519,-6.033904 1.2575,-2.492716 3.7312,-5.814096 5.49709,-7.380843 l 3.21072,-2.848632 -1.33572,-5.275406 c -1.33396,-5.268438 -1.34129,-5.276243 -5.55447,-5.909041 -6.55831,-0.985023 -22.19572,-0.875107 -30.96209,0.217635 -4.36929,0.544637 -11.65957,2.232137 -16.20063,3.75 -8.95733,2.99402 -12.41794,3.411767 -13.15389,1.587875 -0.28619,-0.709252 -0.50208,-0.533707 -0.54687,0.444675 -0.0407,0.889102 1.12896,2.238633 2.59926,2.998958 4.68908,2.424812 7.68842,8.964057 4.1236,8.990337 -3.67716,0.02711 -13.96941,3.99537 -20.04837,7.729812 -8.49633,5.219494 -8.39733,6.803115 0.59524,9.52104 7.29496,2.204837 10.78125,3.90899 10.78125,5.270038 0,0.497483 -0.63281,0.904515 -1.40625,0.904515 -1.62316,0 -1.92172,2.484428 -0.36108,3.004641 0.76285,0.254285 0.77295,1.731465 0.0373,5.468749 -1.25878,6.395442 -0.83804,11.593343 0.96754,11.952857 1.09955,0.218935 1.2776,-0.813733 0.94149,-5.460399 -0.25597,-3.538676 -0.0109,-6.133991 0.64073,-6.785622 0.58041,-0.580375 1.05526,-1.814601 1.05526,-2.742726 0,-2.400484 1.82161,-2.089445 4.87058,0.831648 2.17695,2.085654 2.62942,2.235758 2.62942,0.872296 0,-1.171611 0.60872,-1.560401 2.10937,-1.347273 2.27055,0.322468 2.29278,0.514507 1.50031,12.955829 -0.31502,4.945842 -0.23784,5.146336 1.8917,4.913304 8.63362,-0.944766 14.3653,-9.97457 9.99718,-15.749745 -1.92517,-2.545308 -1.93848,-4.81011 -0.0189,-3.217 1.77244,1.470988 5.2962,9.300895 4.65365,10.340554 -0.26201,0.423955 -0.0476,1.035814 0.4764,1.359686 1.94437,1.201685 0.8896,5.262139 -2.25868,8.695093 -3.15932,3.444982 -3.32522,3.501858 -10.21432,3.501858 -5.53273,0 -7.41072,-0.369172 -8.94577,-1.758552 -1.21149,-1.096517 -4.16018,-2.01348 -7.83257,-2.435711 -3.23929,-0.372438 -7.10109,-1.172189 -8.58178,-1.777226 -1.61018,-0.657952 -3.1173,-0.764315 -3.75,-0.264654 C 246.37789,86.521499 240,87.406441 240,86.292481 c 0,-0.538989 0.63281,-0.979981 1.40625,-0.979981 0.77344,0 1.40625,-0.42556 1.40625,-0.94569 0,-0.594132 -1.90659,-0.721606 -5.12874,-0.342906 -6.48935,0.762695 -9.07049,-0.770658 -11.35154,-6.743529 -1.44103,-3.773281 -1.51654,-5.079228 -0.56116,-9.704744 0.60717,-2.939611 1.1104,-6.37404 1.11829,-7.632064 0.0203,-3.222035 1.49973,-5.366989 2.80299,-4.063725 0.73556,0.735558 0.59678,2.883026 -0.49713,7.692596 -1.28619,5.654931 -1.32728,7.070415 -0.26948,9.284244 0.70902,1.483882 2.15535,2.74146 3.34868,2.911647 1.15532,0.164769 2.10059,0.927948 2.10059,1.695953 0,0.768006 0.45064,1.117867 1.00141,0.777467 0.55078,-0.340398 0.77533,-1.208071 0.49901,-1.928159 -0.50936,-1.327357 2.95542,-6.966576 7.43116,-12.09484 2.21133,-2.533723 2.41013,-2.603418 2.00555,-0.703125 -0.61111,2.870374 -0.0936,2.648848 1.56122,-0.668273 1.29014,-2.586149 1.25831,-2.818071 -0.46169,-3.363976 -2.98926,-0.948755 -8.28666,-6.089237 -8.28666,-8.041198 0,-1.098941 0.99763,-2.180385 2.55905,-2.774033 1.40747,-0.535121 2.77856,-1.28634 3.04687,-1.669375 0.2683,-0.383037 2.70755,-2.118353 5.42054,-3.856259 5.38384,-3.448818 5.25422,-2.808931 2.39318,-11.814076 -1.78491,-5.618022 -1.13466,-9.372971 1.78352,-10.299164 1.14059,-0.362009 3.98726,-2.573001 6.32595,-4.913316 9.76366,-9.7704968 25.66518,-15.0370042 47.96043,-15.88427018 17.00664,-0.64628771 18.46123,-0.31523106 22.44637,5.10866988 5.18924,7.0627043 7.35502,10.9225513 7.39843,13.1854563 0.0309,1.611669 1.23246,2.704072 5.01431,4.558869 4.43097,2.173151 5.44655,3.271686 9.3077,10.067939 4.99192,8.786591 6.44834,13.560286 6.56536,21.519218 0.0711,4.831697 -0.21839,5.877249 -1.94412,7.023094 -1.38929,0.922451 -2.02759,2.309497 -2.02759,4.406005 0,3.350416 -1.0828,5.803135 -4.76037,10.78295 -1.32914,1.7998 -2.98012,5.069629 -3.66883,7.266288 -0.8179,2.608681 -3.03422,5.747776 -6.3901,9.050622 -6.47507,6.372748 -6.16076,7.661144 2.08435,8.544124 7.41321,0.79389 8.55313,0.4303 9.3972,-2.997332 0.97404,-3.955425 4.99948,-10.439623 7.49685,-12.075964 8.10532,-5.310807 26.85924,-2.10687 37.0909,6.336644 15.17178,12.520262 16.53628,14.418092 17.40656,24.209932 0.60134,6.76601 0.51976,7.19017 -1.9468,10.12152 -2.42127,2.87751 -2.47513,3.13218 -0.90513,4.2802 2.28437,1.67037 0.96167,3.37209 -2.65684,3.41818 -1.93689,0.0247 -4.14833,1.03386 -6.27279,2.86257 -2.93677,2.52795 -3.10901,2.92254 -1.64062,3.75849 3.46346,1.97176 0.3206,6.46314 -4.52695,6.46935 -3.70865,0.005 -7.7078,2.60505 -13.16853,8.56232 -8.15678,8.89851 -12.9028,13.11214 -18.1639,16.12635 -1.80469,1.03395 -3.94435,2.4376 -4.7548,3.11922 -0.81046,0.68163 -4.59228,2.7571 -8.40404,4.61217 -3.81177,1.85508 -8.16203,4.40915 -9.66725,5.67571 -1.50523,1.26656 -4.41132,3.15713 -6.45799,4.20126 -3.41421,1.7418 -3.6766,2.14415 -3.18049,4.87707 2.29905,12.665 2.75219,19.9889 1.6864,27.25691 -1.31324,8.95549 -3.8318,17.37475 -7.16552,23.95352 -1.54182,3.04263 -2.20404,5.53578 -1.84762,6.95589 0.42953,1.71138 0.11444,2.32883 -1.38907,2.722 -2.10225,0.54975 -2.49964,3.44225 -0.93115,6.77782 0.66204,1.40792 0.75523,1.01743 0.37409,-1.56752 -0.60418,-4.09761 0.97302,-5.58863 2.94044,-2.77975 1.45314,2.07465 7.72126,4.25247 11.6095,4.03366 3.99056,-0.22457 9.23843,-3.2966 10.91283,-6.38822 1.49446,-2.75938 1.49644,-3.05409 0.0305,-4.52009 -0.86259,-0.86254 -1.5683,-2.40734 -1.5683,-3.43288 0,-1.58142 0.53399,-1.82044 3.51562,-1.57367 3.38932,0.28052 3.57693,0.48465 5.22195,5.68159 2.15087,6.79514 4.70004,7.44292 6.27484,1.59453 1.32654,-4.92635 0.66322,-6.75768 -4.25442,-11.74594 -2.23342,-2.26549 -4.33044,-4.96876 -4.66005,-6.00727 -0.34736,-1.09443 -1.41813,-1.88819 -2.54712,-1.88819 -2.49395,0 -15.73832,6.34117 -15.73832,7.53523 0,0.49625 -0.84375,0.90227 -1.875,0.90227 -2.00182,0 -2.51666,-1.36778 -0.89264,-2.37147 0.5403,-0.33393 0.85672,-1.3487 0.70318,-2.25506 -0.30655,-1.8095 1.72187,-4.74847 3.2773,-4.74847 0.5408,0 1.79998,-0.73828 2.79816,-1.64063 2.38735,-2.15811 12.67699,-1.94173 21.76161,0.45765 5.84558,1.54391 6.64026,2.03063 7.35337,4.50385 0.43974,1.52509 1.66744,4.44364 2.72824,6.48567 1.06079,2.04203 2.21525,6.47171 2.56547,9.84375 0.52455,5.05046 0.33501,6.62663 -1.07546,8.94346 -0.94172,1.54687 -1.7138,4.00957 -1.71572,5.47267 -0.004,2.59443 -5.93884,14.46959 -7.9171,15.83996 -2.35853,1.63379 -11.71616,-1.61619 -14.53026,-5.04646 -0.95281,-1.16144 -3.58583,-2.11977 -7.55615,-2.75018 -3.35156,-0.53216 -7.83415,-1.98496 -9.9613,-3.22846 -3.23398,-1.89052 -4.53941,-2.1462 -7.96875,-1.56076 -2.25567,0.38506 -4.09092,1.11032 -4.07835,1.61168 0.0126,0.50135 1.17703,5.59984 2.58769,11.32997 1.41068,5.73012 2.94054,13.32387 3.3997,16.875 0.45917,3.55112 1.27962,7.59426 1.82324,8.98477 0.54362,1.3905 1.48942,6.10974 2.1018,10.48719 1.01931,7.28641 1.3992,8.2274 4.49531,11.13525 2.3159,2.17507 7.37129,4.74903 16.03816,8.16583 15.21337,5.99767 25.9801,11.57328 32.51851,16.83985 1.643,1.32341 5.55987,4.30463 8.70418,6.62494 3.14431,2.32031 7.45151,5.60798 9.57156,7.30593 2.12005,1.69795 4.74223,3.54513 5.82707,4.10484 1.08483,0.55972 2.74948,1.70173 3.69919,2.53782 1.67683,1.47619 6.86597,4.65054 13.89948,8.50271 1.8913,1.03585 5.2663,3.05259 7.5,4.48165 5.9358,3.79759 7.24486,4.57643 13.26163,7.89018 7.43692,4.09589 9.41097,6.74873 8.73262,11.73533 -0.67364,4.95192 -8.21142,19.67397 -12.21261,23.85248 -1.67627,1.75054 -3.32953,3.81562 -3.67393,4.58906 -0.34439,0.77344 -2.54812,4.35937 -4.89716,7.96875 -2.34905,3.60937 -5.90048,9.9691 -7.89207,14.13272 -1.9916,4.16362 -5.60881,11.12456 -8.03827,15.46875 -6.5437,11.70102 -9.55329,17.87512 -10.24799,21.02353 -0.96075,4.3542 -8.85548,23.98635 -11.12147,27.65625 -1.11431,1.80469 -2.04983,3.49219 -2.07894,3.75 -0.0291,0.25781 -1.1626,4.05469 -2.51887,8.4375 -3.02263,9.7677 -4.47043,17.69482 -4.47043,24.47695 0,4.70118 0.31409,5.47221 3.63849,8.93193 2.00118,2.08263 3.90421,4.62376 4.22896,5.64696 0.72412,2.28148 7.07623,6.01084 12.75755,7.49003 2.32031,0.60412 7.05421,1.12549 10.51977,1.1586 8.293,0.0792 12.91773,1.96887 12.91773,5.27807 0,3.79541 -1.54203,5.82521 -5.38343,7.0863 -1.93755,0.63608 -5.0028,2.08731 -6.81167,3.22494 -3.75291,2.36028 -14.55657,3.54458 -21.5549,2.36284 z m 16.69264,-7.53208 c 2.22002,-2.57787 4.59414,-4.68704 5.27583,-4.68704 0.6817,0 1.76463,-0.63281 2.40653,-1.40625 2.28201,-2.74965 -0.81847,-1.35234 -8.42171,3.79546 -6.25114,4.23235 -7.93677,4.991 -9.04531,4.07098 -0.9681,-0.80345 -1.65292,-0.84025 -2.36603,-0.12714 -1.72262,1.72263 0.0928,3.04197 4.18526,3.04149 3.55133,-4.1e-4 4.31707,-0.45104 7.96543,-4.6875 z m -15.28229,2.80634 c 0.32091,-0.51927 -0.076,-1.19721 -0.88218,-1.50655 -2.51339,-0.96448 -1.61785,-3.03144 2.27711,-5.25571 3.90057,-2.22748 4.76597,-3.54362 2.33003,-3.54362 -0.78496,0 -3.25793,1.6875 -5.49547,3.75 -4.41229,4.0671 -5.26484,4.45844 -5.26484,2.4167 0,-0.73332 2.00391,-3.05092 4.45312,-5.15021 2.46965,-2.1168 3.81528,-3.81958 3.02111,-3.82293 -1.65779,-0.007 -4.9768,2.08906 -8.6184,5.44283 -2.27126,2.09172 -2.61764,2.17367 -3.16447,0.74868 -0.38793,-1.01093 0.0334,-2.09041 1.14417,-2.93154 0.96703,-0.73227 1.37617,-1.34481 0.90921,-1.36122 -1.40808,-0.0494 -7.11974,4.66991 -7.11974,5.8828 0,1.20888 3.52834,2.99908 9.74731,4.94556 4.81288,1.50639 5.93018,1.57098 6.66304,0.38521 z m 21.70364,-2.37756 c 0.30533,-0.79568 0.33318,-1.66866 0.0619,-1.93996 -0.61028,-0.61028 -4.42586,1.69557 -4.42586,2.67466 0,1.35022 3.81007,0.70877 4.36399,-0.7347 z M 34.6875,592.51221 C 31.335937,591.58076 24.796875,589.51456 20.15625,587.92064 11.335215,584.89088 9.375,584.49777 9.375,585.75856 c 0,0.41721 2.003906,1.44253 4.453125,2.2785 2.449219,0.83597 7.195312,2.58201 10.546875,3.8801 3.95151,1.53044 7.906415,2.34757 11.25,2.32437 l 5.15625,-0.0358 -6.09375,-1.69355 z m 372.1875,-0.98269 c 0,-1.24162 -1.26953,-1.13499 -2.625,0.22048 -1.76962,1.76962 -1.31495,2.79263 0.75,1.6875 1.03125,-0.55191 1.875,-1.4105 1.875,-1.90798 z m -387.703125,1.07585 c -1.439288,-1.34475 -5.109375,-2.19535 -5.109375,-1.18417 0,1.08574 1.617695,1.83888 4.171875,1.94228 1.106263,0.0448 1.476449,-0.25456 0.9375,-0.75811 z m 406.318835,-0.003 c 0.69958,-0.44328 0.91052,-1.0194 0.46875,-1.28027 -1.29529,-0.76488 -6.92715,0.37014 -6.36332,1.28244 0.65284,1.05632 4.22614,1.055 5.89457,-0.002 z M 49.654018,591.21014 c -0.755022,-0.70942 -2.638393,-1.55961 -4.185268,-1.88931 l -2.8125,-0.59946 2.213235,1.88931 c 2.602778,2.22185 7.112558,2.78688 4.784533,0.59946 z m 312.220982,0.5375 c 0,-0.76056 -9.54607,-3.07109 -10.19394,-2.46734 -0.1926,0.17948 -0.10038,0.97734 0.20495,1.77302 0.39857,1.03866 1.88549,1.44668 5.27207,1.44668 2.59431,0 4.71692,-0.33856 4.71692,-0.75236 z M 36.864062,589.61407 c -1.087699,-1.08771 -24.89991,-9.32214 -26.80794,-9.27038 -1.4619396,0.0397 2.889279,3.71881 4.398117,3.71881 0.616836,0 5.527131,1.45184 10.911765,3.22631 10.515098,3.46518 13.176125,4.00332 11.498058,2.32526 z m 339.872678,-4.78792 c 3.31137,-2.82528 3.74393,-3.79614 1.31013,-2.94054 -2.00986,0.70656 -6.79687,5.03718 -6.79687,6.14887 0,1.01541 1.7044,0.0187 5.48674,-3.20833 z m 8.77878,-0.76433 c 1.91636,-1.03425 3.9522,-2.75475 4.5241,-3.82335 0.97219,-1.81654 0.89801,-1.86898 -1.14054,-0.80616 -3.9369,2.05251 -11.08658,7.58211 -11.08658,8.57438 0,0.5346 0.94922,0.28881 2.10937,-0.54621 1.16016,-0.83501 3.6773,-2.36441 5.59366,-3.39866 z M 49.6875,584.20488 c 0,-1.09604 -7.372839,-4.33204 -8.134558,-3.57032 -0.886787,0.88678 0.02536,1.55842 4.080425,3.00453 4.392441,1.56642 4.054133,1.51921 4.054133,0.56579 z m 300.23437,-0.19167 c 4.23761,-1.17685 4.50524,-2.33091 0.71627,-3.08871 -1.53964,-0.30792 -3.53184,-1.41534 -4.4271,-2.46094 -1.90262,-2.22209 -4.96104,-2.52714 -4.96104,-0.49481 0,0.77344 0.63281,1.40625 1.40625,1.40625 0.77344,0 1.40625,0.42187 1.40625,0.9375 0,1.56624 -2.3939,1.05229 -4.77843,-1.02591 l -2.25282,-1.9634 -0.30851,2.03158 c -0.52872,3.48162 0.51585,4.58067 4.71057,4.95629 2.21949,0.19875 4.24638,0.43271 4.50419,0.51993 0.25781,0.0872 2.05078,-0.2808 3.98437,-0.81778 z m 41.97194,-0.44212 c 1.85281,-2.23251 0.49369,-2.57358 -1.99538,-0.50072 -1.73428,1.44428 -1.89654,1.87432 -0.71634,1.89844 0.8392,0.0172 2.05948,-0.61181 2.71172,-1.39772 z m -24.09629,-1.14922 c 1.35705,-1.20254 1.96087,-1.3277 2.26132,-0.46875 0.51486,1.47191 2.35253,1.51051 3.78353,0.0795 0.83151,-0.8315 0.73659,-1.35254 -0.39747,-2.18177 -1.28022,-0.93613 -0.98703,-1.32801 2.08376,-2.78519 1.96546,-0.93268 4.02167,-2.07464 4.56933,-2.53769 0.54767,-0.46305 1.83951,-1.44692 2.87076,-2.18638 1.82263,-1.30691 1.80819,-1.34529 -0.51671,-1.37428 -2.75258,-0.0343 -12.24859,5.89816 -16.29931,10.18272 -2.93286,3.10215 -1.59131,4.13952 1.6448,1.27184 z M 36.148941,581.68894 c -1.664098,-1.25866 -7.086441,-1.97371 -7.086441,-0.93449 0,0.52563 5.492995,2.17806 7.5,2.25618 1.044321,0.0407 0.937882,-0.29952 -0.413559,-1.32169 z M 332.8125,579.52549 c 0,-1.27143 -4.54314,-3.01752 -5.1781,-1.99014 -0.30666,0.49618 -0.29682,1.32402 0.0218,1.83965 0.70009,1.13276 5.15625,1.26281 5.15625,0.15049 z M 20.178692,577.53631 c -0.706223,-1.14269 -6.930445,-2.34706 -7.773381,-1.50413 -0.347743,0.34775 -0.01166,1.02475 0.746839,1.50444 1.831589,1.15833 7.742461,1.15807 7.026542,-3.1e-4 z M 46.875,576.5393 c 0,-0.52839 -1.125775,-1.38873 -2.501723,-1.91187 -1.375949,-0.52313 -2.95798,-1.54201 -3.515625,-2.26418 -1.26664,-1.64034 -17.959967,-6.46969 -19.363979,-5.60197 -1.461034,0.90298 -0.106589,1.79727 4.756327,3.14045 8.267758,2.28362 13.634187,4.20963 16.40625,5.8882 3.206038,1.94136 4.21875,2.12125 4.21875,0.74937 z M 30,575.50781 c 0,-0.67569 1.027392,-0.8492 2.859104,-0.48287 1.572507,0.31451 2.633784,0.20725 2.358392,-0.23835 -0.275392,-0.44559 -3.47774,-0.83818 -7.116328,-0.87241 -3.638589,-0.0342 -7.442052,-0.32455 -8.452142,-0.64515 -1.010089,-0.32058 -1.836526,-0.35628 -1.836526,-0.0793 0,0.61898 8.286179,3.21752 10.546875,3.3075 C 29.261719,576.53311 30,576.08789 30,575.50781 Z m 298.125,-1.10988 c 0,-0.67488 -0.56842,-2.00442 -1.26315,-2.95452 -1.53536,-2.09974 -2.91401,-0.51619 -2.01544,2.31498 0.65606,2.06705 3.27859,2.57861 3.27859,0.63954 z m 28.44913,0.52357 c 0.23913,-0.38692 -0.3511,-2.17989 -1.31163,-3.98437 -1.706,-3.20498 -1.74732,-3.22301 -1.7857,-0.77943 -0.0664,4.22473 1.72638,6.98205 3.09733,4.7638 z M 46.654827,571.68323 c -0.207032,-0.6211 -1.759909,-1.69379 -3.450836,-2.38376 -2.479892,-1.0119 -2.997088,-1.02014 -2.674544,-0.0427 0.389747,1.1812 4.15783,3.51417 5.720553,3.54181 0.429688,0.008 0.61186,-0.49435 0.404827,-1.11544 z M 360.9375,570.90015 c 0,-1.60775 -3.72463,-8.40015 -4.60626,-8.40015 -1.85,0 -1.75714,2.99048 0.18759,6.04096 1.98603,3.11525 4.41867,4.41407 4.41867,2.35919 z m -16.875,-3.12064 c 0,-2.11092 -1.17432,-2.49915 -2.45561,-0.81182 -1.97037,2.59479 -1.65727,4.22998 0.58061,3.03231 1.03125,-0.55191 1.875,-1.55112 1.875,-2.22049 z m 23.76364,-1.67178 c -0.18417,-1.63216 -4.76992,-13.989 -5.44024,-14.65933 -0.281,-0.28099 -0.76842,-0.25338 -1.08318,0.0614 -0.31475,0.31476 0.57862,3.50572 1.98527,7.09105 3.23918,8.25613 2.53548,10.81557 -1.00762,3.66479 -1.46903,-2.96484 -3.00495,-5.39062 -3.41317,-5.39062 -1.1896,0 -0.88146,1.39072 1.38153,6.23503 3.35212,7.17581 3.37999,7.20334 5.69998,5.63085 1.11102,-0.75305 1.95586,-1.93797 1.87743,-2.63316 z M 38.4375,567.25914 c 0,-0.93525 -14.227902,-5.84373 -14.923262,-5.14838 -0.893969,0.89397 1.773777,2.46182 7.064289,4.15173 6.319314,2.01852 7.858973,2.21378 7.858973,0.99665 z m 333.75,-2.76935 c 0,-0.45249 -0.63281,-1.34789 -1.40625,-1.98979 -0.77344,-0.6419 -1.40625,-2.19785 -1.40625,-3.45768 0,-2.74079 -1.56142,-5.91732 -2.90866,-5.91732 -1.09832,0 -0.53203,2.30111 2.01874,8.20312 1.52765,3.53472 3.70242,5.39185 3.70242,3.16167 z M 45.476677,562.73437 c -0.363785,-0.90234 -0.89123,-3.25908 -1.1721,-5.23721 -0.473956,-3.33798 -2.360178,-5.37906 -3.71704,-4.0222 -1.005162,1.00517 2.842167,10.90004 4.238157,10.90004 0.876886,0 1.092915,-0.54444 0.650983,-1.64063 z m 331.029613,-0.46875 c -1.78021,-2.44649 -2.30562,-3.56674 -5.82607,-12.42187 -2.63141,-6.61893 -5.05522,-11.07647 -5.05522,-9.29689 0,1.49593 3.72657,12.59541 5.71469,17.02105 0.98192,2.18579 1.78531,4.36547 1.78531,4.84375 0,0.94445 1.58984,1.77193 3.62997,1.88932 1.00864,0.058 0.95498,-0.38121 -0.24868,-2.03536 z m -328.546624,-5.625 c -1.090195,-4.20679 -1.615026,-5.20995 -1.860833,-3.55682 -0.403183,2.71154 1.436798,9.4162 2.584115,9.4162 0.43735,0 0.111874,-2.63672 -0.723282,-5.85938 z M 380.625,560.73434 c 0,-0.97111 -0.81306,-1.97827 -1.80679,-2.23814 -1.59978,-0.41835 -1.68994,-0.21607 -0.78701,1.76566 1.22032,2.67831 2.5938,2.9285 2.5938,0.47248 z M 34.6875,558.28125 c 0,-0.875 -0.885416,-1.40625 -2.34375,-1.40625 -2.276124,0 -2.993379,0.91287 -1.71875,2.1875 1.179354,1.17935 4.0625,0.62491 4.0625,-0.78125 z M 24.481099,557.8125 c 2.900857,0 4.771216,-0.43928 4.989636,-1.17188 0.638667,-2.14214 1.444641,-3.96885 2.378413,-5.39062 0.507971,-0.77344 3.305978,-5.41406 6.217795,-10.3125 2.911817,-4.89844 6.67907,-11.23174 8.371676,-14.07401 1.692606,-2.84227 4.014454,-6.00633 5.159662,-7.03125 1.145208,-1.02492 2.870199,-3.55099 3.833312,-5.61349 2.261392,-4.84275 13.520449,-20.90953 17.459032,-24.91419 1.675781,-1.70391 3.046875,-3.61634 3.046875,-4.24987 0,-1.12593 4.661726,-6.86862 9.411125,-11.59341 1.308931,-1.30214 5.661099,-5.8957 9.671481,-10.2079 7.182094,-7.7226 19.565474,-18.60972 29.667394,-26.08274 4.79387,-3.54632 13.27054,-12.16587 21.9187,-22.28816 4.01078,-4.69444 4.78866,-4.9826 7.30436,-2.70593 1.61053,1.45752 1.71444,1.4291 1.71444,-0.46875 0,-1.11117 -0.42188,-2.0203 -0.9375,-2.0203 -0.51563,0 -0.93712,-0.31641 -0.93667,-0.70313 0.002,-1.61208 19.21647,-21.56777 42.05711,-43.67932 3.2803,-3.17558 7.69583,-8.09411 9.81229,-10.93005 2.11646,-2.83594 5.21834,-6.72287 6.89306,-8.63763 3.27991,-3.75001 6.95238,-9.07188 10.47911,-15.18555 1.21612,-2.10819 3.44977,-5.41376 4.96365,-7.34571 1.51388,-1.93196 2.65725,-4.04133 2.54082,-4.6875 -0.11643,-0.64618 0.67999,-3.0733 1.76982,-5.39361 1.08983,-2.32031 3.09216,-8.01562 4.44962,-12.65625 1.35746,-4.64062 3.87025,-12.23437 5.58396,-16.875 1.71372,-4.64062 3.58666,-10.18042 4.1621,-12.31066 0.57544,-2.13024 1.67713,-4.39674 2.44819,-5.03667 0.77107,-0.63993 1.40194,-1.53372 1.40194,-1.98621 0,-1.39485 -6.26247,-0.90759 -7.5,0.58354 -0.6419,0.77344 -1.64277,1.41951 -2.22416,1.43571 -0.5814,0.0162 -1.78263,1.0279 -2.66941,2.24821 -1.63106,2.24453 -2.48274,4.34656 -7.24375,17.87858 -1.4513,4.125 -3.28081,9.1875 -4.06555,11.25 -0.78474,2.0625 -1.95058,5.64844 -2.59076,7.96875 -2.24119,8.12315 -5.40949,16.48851 -7.59528,20.054 -2.22012,3.62149 -8.33405,10.7779 -20.7739,24.31605 -3.70889,4.03634 -7.89638,8.67696 -9.30552,10.3125 -1.40914,1.63553 -3.85072,4.45026 -5.42574,6.25495 -1.57502,1.80469 -4.75113,5.60156 -7.05802,8.4375 -2.3069,2.83594 -7.50764,8.74219 -11.5572,13.125 -4.04956,4.38281 -10.66644,11.55469 -14.70416,15.9375 -11.30289,12.26891 -30.30429,30.68351 -36.03655,34.92367 -2.83594,2.09775 -7.33243,5.75043 -9.99221,8.11708 -2.659784,2.36665 -6.568034,5.64124 -8.684996,7.27687 -2.116963,1.63563 -5.294809,4.79969 -7.061877,7.03125 -1.76707,2.23156 -4.951368,6.16676 -7.076219,8.74488 -7.699241,9.34164 -14.417305,19.91115 -21.139555,33.2588 -4.981451,9.89113 -8.004088,14.71458 -11.048596,17.6311 -2.305101,2.2082 -6.021098,6.84882 -8.257771,10.3125 -2.236673,3.46368 -5.411119,7.77416 -7.054325,9.57885 -1.643206,1.80469 -4.224264,4.96875 -5.735684,7.03125 -1.511421,2.0625 -4.072889,5.11725 -5.692152,6.78834 -3.254538,3.3587 -3.709496,4.48722 -1.46119,3.62446 0.81561,-0.31298 3.571038,-0.56905 6.123174,-0.56905 z m 27.590765,-5.85938 -0.612235,-5.85937 1.90559,2.34375 c 2.25663,2.77551 2.393921,1.80653 0.82221,-5.80294 -1.320073,-6.39116 -3.030946,-7.38846 -2.107175,-1.22831 0.701307,4.67665 -0.501205,5.65211 -2.246258,1.82213 -1.475171,-3.23764 -3.231433,-1.96471 -2.459656,1.78275 0.674589,3.27555 3.06582,10.80634 3.817499,12.02258 1.179748,1.90887 1.448327,0.35831 0.880025,-5.08059 z m 323.862416,0 c -0.005,-1.59272 -5.50733,-15.01343 -6.61183,-16.125 -1.4908,-1.50035 -0.98038,1.52713 0.98914,5.86687 1.0081,2.22131 2.28073,5.70178 2.82805,7.73438 0.92961,3.45231 2.80183,5.14305 2.79464,2.52375 z m 4.65664,-2.06831 c 1.27585,-1.53731 0.56278,-3.32231 -1.3272,-3.32231 -0.68784,0 -1.51662,-0.6932 -1.84174,-1.54043 -1.14822,-2.99222 -1.65589,-0.41336 -0.56771,2.88387 1.2031,3.64541 2.00229,4.06865 3.73665,1.97887 z M 354.375,546.5625 c 0,-1.03125 -0.39698,-1.875 -0.88217,-1.875 -1.25845,0 -2.14521,1.70637 -1.46158,2.8125 0.9798,1.58535 2.34375,1.03976 2.34375,-0.9375 z M 68.655052,540 c 1.308194,-2.54187 5.082708,-8.4982 9.305544,-14.68451 1.465422,-2.14679 2.664404,-4.16778 2.664404,-4.49109 0,-0.3233 0.778323,-1.73089 1.729606,-3.12798 0.951283,-1.39709 3.241945,-5.08697 5.09036,-8.19973 1.848414,-3.11275 5.39431,-7.79169 7.879771,-10.39763 12.907663,-13.53338 15.879893,-16.80539 18.298193,-20.14376 1.45136,-2.00354 3.269,-3.6428 4.0392,-3.6428 0.82272,0 1.40665,-0.8701 1.4156,-2.10937 C 119.10651,469.21838 114.99832,450 114.11776,450 c -0.48447,0 -0.61649,0.68896 -0.29336,1.53101 1.50244,3.91531 3.41072,19.42137 2.50195,20.33014 -0.65059,0.65059 -1.24679,0.23093 -1.86335,-1.3116 -0.80328,-2.00966 -0.91342,-1.814 -0.96607,1.71608 -0.0973,6.52583 -1.46562,4.55673 -3.25725,-4.6875 -2.14801,-11.08305 -2.39104,-11.95313 -3.33865,-11.95313 -1.04655,0 -0.23251,6.33471 1.94765,15.1562 2.13161,8.62505 2.11579,8.2813 0.38115,8.2813 -0.90276,0 -1.60682,-1.32352 -1.99482,-3.75 -0.3298,-2.0625 -0.9676,-3.75 -1.41733,-3.75 -1.2922,0 -0.9541,3.57931 0.62689,6.63659 1.51775,2.93502 1.17462,4.61341 -0.94318,4.61341 -0.82348,0 -1.46867,-1.71266 -1.85417,-4.92188 -0.75958,-6.32352 -2.42845,-12.79926 -3.46332,-13.43885 -1.224944,-0.75705 -0.946113,2.0835 1.0661,10.86073 1.00477,4.38281 1.82427,9.23437 1.82111,10.78125 -0.006,2.63704 -0.0893,2.70225 -1.34372,1.04528 -0.73588,-0.97196 -1.60476,-3.71415 -1.930834,-6.09375 -0.936112,-6.83147 -2.281772,-11.35778 -3.37664,-11.35778 -1.209244,0 -0.436022,6.38116 1.735471,14.32242 0.814566,2.97889 1.176779,5.72041 0.804919,6.09227 -1.191956,1.19197 -3.159947,-2.60644 -3.813881,-7.36116 -0.60585,-4.40499 -1.69658,-6.41114 -2.64547,-4.8657 -0.242608,0.39513 0.344943,3.8775 1.30567,7.7386 1.054856,4.2394 1.407375,7.35957 0.889959,7.87699 -0.517425,0.51742 -1.245952,-0.12807 -1.839202,-1.62955 -2.699826,-6.83315 -3.173951,-7.65078 -3.535743,-6.09736 -0.197941,0.8499 0.311082,4.13465 1.131163,7.29944 1.418716,5.47501 1.263935,8.15381 -0.411304,7.11845 -0.421544,-0.26053 -1.041545,-1.94011 -1.377781,-3.73241 -0.975572,-5.20024 -2.586961,-5.14027 -2.405309,0.0895 0.221596,6.37977 0.117554,7.08699 -0.945908,6.42974 -0.515625,-0.31868 -0.9375,-1.7395 -0.9375,-3.1574 0,-1.41789 -0.660347,-3.3969 -1.467438,-4.39779 -1.362322,-1.68945 -1.425915,-1.45783 -0.887772,3.23351 0.318816,2.77933 0.820959,6.2598 1.115875,7.73438 0.302501,1.51249 0.129683,2.68104 -0.396504,2.68104 -0.512993,0 -1.438776,-2.57227 -2.057296,-5.71614 -1.616243,-8.21521 -2.363515,-6.07324 -1.03972,2.98024 1.580134,10.80661 -0.161343,11.69239 -2.25045,1.14467 -1.80427,-9.1096 -3.253257,-12.81178 -3.300687,-8.43329 -0.03226,2.9782 1.768584,10.94845 2.794559,12.36827 0.372597,0.51563 0.952329,3.10167 1.288293,5.74676 0.587352,4.62432 0.518003,4.82702 -1.803182,5.27074 -3.155334,0.60319 -5.120678,-1.4385 -5.120678,-5.31957 0,-3.67037 -1.717072,-8.97918 -2.904211,-8.97918 -1.144631,0 -1.106874,0.29766 0.938519,7.39893 2.481151,8.61414 3.023348,12.52314 1.964552,14.16357 -0.60495,0.93727 -0.912436,1.01543 -0.922004,0.23437 -0.0079,-0.64453 -0.49015,-1.17187 -1.071676,-1.17187 -0.712229,0 -0.857353,1.25052 -0.444644,3.83147 0.525379,3.28553 0.354642,3.89894 -1.198284,4.30504 -1.173703,0.30692 -2.026267,1.62127 -2.422826,3.73511 -0.336527,1.79384 -0.837339,3.96985 -1.112915,4.83558 -0.635314,1.99585 2.929544,-2.25313 4.578541,-5.4572 z m 290.407448,5.33543 c 0,-0.67488 -0.6194,-2.04598 -1.37644,-3.04687 -1.18734,-1.56982 -1.38052,-1.60496 -1.40625,-0.25586 -0.042,2.20583 0.95607,4.5298 1.94549,4.5298 0.46046,0 0.8372,-0.55218 0.8372,-1.22707 z M 57.948592,536.95312 c -1.157226,-6.58416 -3.135362,-7.41937 -2.220389,-0.9375 0.867371,6.14465 1.51445,8.06049 2.406697,7.12562 0.418628,-0.43862 0.33479,-3.22327 -0.186308,-6.18812 z m 326.956628,-4.25055 c -0.80724,-1.69328 -1.46772,-3.5256 -1.46772,-4.07182 0,-0.54622 -1.61193,-4.22332 -3.58207,-8.17132 -1.97013,-3.948 -4.56474,-9.92037 -5.76579,-13.27193 -1.20105,-3.35156 -2.73769,-6.69599 -3.41474,-7.43207 -2.27654,-2.475 -2.56536,1.38707 -0.44769,5.98672 3.91715,8.50823 5.52751,12.35818 8.05516,19.25785 1.41671,3.86719 3.23684,8.37396 4.04471,10.01505 1.15703,2.35035 1.2451,3.4749 0.41486,5.29709 -0.5797,1.27231 -0.77329,2.59402 -0.43018,2.93711 0.34311,0.34311 1.39723,-1.19683 2.34251,-3.42209 1.58606,-3.7337 1.60542,-4.28347 0.25095,-7.12459 z m -22.68068,9.36531 c 0.25311,-0.40954 -0.34738,-2.5484 -1.33442,-4.75302 -2.03579,-4.54708 -4.241,-4.45989 -3.32275,0.13136 0.84291,4.21457 3.36309,6.71553 4.65717,4.62166 z M 61.39013,533.3641 c -0.348616,-1.58723 -0.747515,-3.92136 -0.88644,-5.18694 -0.285449,-2.60037 -1.14074,-3.79011 -2.062228,-2.86862 -0.341571,0.34157 -0.130634,1.69735 0.46875,3.01286 C 59.509596,529.6369 60,531.67775 60,532.85662 c 0,1.97216 0.685604,3.39338 1.636989,3.39338 0.212845,0 0.101758,-1.29865 -0.246859,-2.8859 z m 303.29737,1.59414 c 0,-2.13406 -2.76922,-8.08324 -3.76258,-8.08324 -1.37548,0 -1.12346,2.33255 0.65496,6.06194 1.61009,3.37638 3.10762,4.35042 3.10762,2.0213 z m 1.50313,-8.46474 c -0.7741,-1.85267 -1.85086,-3.3685 -2.39279,-3.3685 -1.36442,0 -1.26804,0.46062 1.03765,4.95923 2.35953,4.60364 3.42213,3.3563 1.35514,-1.59073 z M 64.617741,525.44052 c -1.563854,-6.00055 -1.791488,-6.45427 -2.754825,-5.49094 -0.559157,0.55916 -0.528842,2.26667 0.08184,4.6099 1.563854,6.00055 1.791488,6.45427 2.754825,5.49094 0.559157,-0.55916 0.528842,-2.26667 -0.08184,-4.6099 z m 313.164949,3.0751 c -0.0164,-0.64453 -0.70597,-2.01562 -1.53238,-3.04687 -1.32045,-1.64776 -1.43046,-1.66688 -0.90768,-0.1577 0.32718,0.94452 0.59487,2.31561 0.59487,3.04688 0,0.73126 0.42187,1.32957 0.9375,1.32957 0.51562,0 0.92408,-0.52734 0.90769,-1.17188 z m 11.28199,-0.70312 c 0.43249,0 1.0603,-1.24732 1.39514,-2.77184 0.46623,-2.12273 -0.26192,-4.59259 -3.10937,-10.54688 -2.04499,-4.27626 -5.73498,-12.52112 -8.19999,-18.32191 -3.87155,-9.11077 -6.02546,-12.6036 -6.02546,-9.771 0,1.18344 4.19094,11.19695 7.32651,17.50538 1.53773,3.09375 3.25535,7.3125 3.81694,9.375 0.5616,2.0625 1.80787,5.02912 2.76949,6.59249 1.22363,1.98933 1.51753,3.4666 0.97919,4.92188 -1.09744,2.96667 -1.52106,2.63949 -3.0734,-2.37375 -4.32109,-13.9548 -13.69373,-34.19296 -13.69373,-29.5686 0,1.74928 7.38816,19.89483 11.18031,27.45923 0.90472,1.80469 1.94099,4.47976 2.30282,5.94461 0.46586,1.88598 1.07926,2.50167 2.10155,2.10938 0.79402,-0.3047 1.79753,-0.55399 2.23,-0.55399 z M 69.347606,524.76562 c -1.641585,-6.51742 -2.891554,-10.03325 -3.757319,-10.56832 -0.496533,-0.30688 -0.902787,-0.13195 -0.902787,0.38872 0,2.32331 2.184682,10.99544 3.036795,12.0546 1.679646,2.08778 2.409195,1.24512 1.623311,-1.875 z M 370.3125,521.83793 c 0,-1.30391 -4.0005,-9.02543 -4.67604,-9.02543 -1.84831,0 -1.97928,2.12908 -0.24938,4.05378 1.00843,1.12198 2.09409,2.77825 2.41254,3.68059 0.48397,1.37129 2.51288,2.41368 2.51288,1.29106 z M 75.532702,517.73437 c -0.337407,-1.93359 -1.286904,-5.625 -2.109994,-8.20312 -0.82309,-2.57813 -1.645689,-5.24158 -1.827997,-5.91879 -0.182307,-0.67722 -0.754776,-0.96968 -1.272152,-0.64993 -0.598426,0.36985 -0.430286,1.56838 0.462129,3.29412 0.771546,1.492 1.402812,3.6688 1.402812,4.83733 0,2.22579 2.743055,10.15602 3.512952,10.15602 0.245145,0 0.169658,-1.58203 -0.16775,-3.51563 z M 394.7554,515.45782 c 0.42856,-1.60249 0.20652,-3.17479 -0.61368,-4.3458 -0.70686,-1.00919 -2.79129,-5.99645 -4.63206,-11.08282 -1.84078,-5.08637 -4.33157,-11.35733 -5.53509,-13.93545 -1.20353,-2.57813 -2.47796,-5.63672 -2.83207,-6.79688 -0.68289,-2.23729 -2.40024,-2.91343 -2.3812,-0.9375 0.007,0.64454 1.01673,2.93015 2.24559,5.07915 1.22887,2.149 2.75406,5.524 3.38931,7.5 0.63525,1.976 2.21425,6.12398 3.50887,9.21773 3.18155,7.60287 4.93628,14.40277 3.88442,15.05285 -0.46859,0.28961 -0.85199,1.1654 -0.85199,1.94622 0,2.382 3.09492,1.00595 3.8179,-1.6975 z m -24.70962,-4.52032 c -1.82416,-4.31767 -3.48328,-6.08066 -3.48328,-3.70136 0,1.33836 4.06297,8.37261 4.84122,8.38164 0.34236,0.004 -0.26871,-2.10216 -1.35794,-4.68028 z m 16.77262,-7.10736 c -3.0512,-8.83509 -10.07367,-23.61535 -10.57807,-22.26371 -0.22529,0.60372 0.61047,3.13497 1.85724,5.625 1.24677,2.49002 3.2021,7.37039 4.34519,10.84526 1.14308,3.47487 2.46734,6.55836 2.94279,6.8522 0.47544,0.29385 0.86445,1.26875 0.86445,2.16644 0,1.53954 1.87604,4.19363 2.51361,3.55606 0.16216,-0.16217 -0.71318,-3.21373 -1.94521,-6.78125 z m 8.47506,0.52778 c -0.828,-4.13997 -6.27033,-16.85792 -7.21393,-16.85792 -0.4444,0 0.23825,2.84766 1.51701,6.32812 4.52023,12.30302 6.94963,16.79336 5.69692,10.5298 z m 5.01904,-0.3597 c 0,-0.87871 -7.71419,-16.59653 -8.00347,-16.30724 -0.25886,0.25885 2.93931,10.82956 4.69319,15.51214 0.39014,1.04161 3.31028,1.74299 3.31028,0.7951 z m 1.875,-5.62463 c 0,-0.8531 -8.36384,-21.06755 -10.51139,-25.40484 -3.37327,-6.81278 -5.79549,-10.76856 -6.59799,-10.77532 -1.03807,-0.008 -0.91979,0.42393 1.5945,5.83268 2.84163,6.11295 10.64625,23.55938 12.38123,27.67701 0.7061,1.67579 1.70002,3.04688 2.20873,3.04688 0.50871,0 0.92492,-0.16938 0.92492,-0.37641 z M 79.746898,491.25 c 0.482956,0 0.878102,0.50625 0.878102,1.125 0,0.75926 0.308594,0.8164 0.949219,0.17578 1.081447,-1.08144 0.181558,-6.92578 -1.066407,-6.92578 -0.451171,0 -0.820312,1.05469 -0.820312,2.34375 0,1.75842 -0.493313,2.34375 -1.975302,2.34375 -1.51354,0 -1.817412,0.38352 -1.299887,1.64062 0.371478,0.90235 0.943957,2.48438 1.272177,3.51563 0.470988,1.47982 0.658678,1.23284 0.890535,-1.17188 0.161576,-1.67578 0.68892,-3.04687 1.171875,-3.04687 z M 391.3405,484.45312 c -1.24931,-3.98766 -6.95066,-15.58329 -7.97254,-16.21485 -0.56256,-0.34768 -0.40831,0.57445 0.34276,2.04917 1.92422,3.77818 5.94451,12.67944 6.60971,14.63443 0.82813,2.43388 1.79084,1.99148 1.02007,-0.46875 z M 85.3125,482.34375 C 85.3125,481.05469 84.890625,480 84.375,480 c -1.047345,0 -1.285034,3.08996 -0.3125,4.0625 1.033445,1.03344 1.25,0.73568 1.25,-1.71875 z m 322.89207,-1.9753 c 2.09723,-0.80478 1.84568,-3.18095 -0.33674,-3.18095 -2.0603,0 -3.26467,1.41193 -2.39908,2.8125 0.67966,1.09971 0.79108,1.11472 2.73582,0.36845 z m -6.01707,-2.25617 c 0,-0.52262 -0.40353,-1.68278 -0.89672,-2.57813 -1.64075,-2.97861 -9.16917,-19.53027 -9.82943,-21.61055 -0.35761,-1.12673 -1.28158,-2.0486 -2.05326,-2.0486 -1.15872,0 -1.07347,0.61224 0.48953,3.51562 2.59816,4.8263 9.09108,18.98425 9.88868,21.5625 0.65239,2.10885 2.4012,2.95306 2.4012,1.15916 z m 11.25,-3.7667 c 0,-0.53181 -0.66812,-1.22331 -1.4847,-1.53666 -0.81659,-0.31335 -1.84453,-1.46027 -2.28432,-2.5487 -0.68233,-1.68866 -0.80835,-1.72926 -0.85905,-0.27671 -0.0862,2.46688 1.66198,5.32899 3.2548,5.32899 0.7553,0 1.37327,-0.43511 1.37327,-0.96692 z m -12.08935,-8.0985 c -1.55126,-3.0062 -2.84076,-4.91146 -2.86556,-4.23388 -0.0717,1.96069 4.85338,12.01073 5.2909,10.79638 0.21732,-0.60317 -0.87408,-3.55629 -2.42534,-6.5625 z m -277.16363,3.67479 c -0.38697,-0.90234 -1.50874,-5.21335 -2.49281,-9.58001 -0.98408,-4.36666 -1.97823,-8.12838 -2.20922,-8.35938 -1.30385,-1.30384 -1.29995,1.51814 0.0117,8.46342 1.93763,10.2599 2.24209,11.1166 3.95054,11.1166 1.01768,0 1.23586,-0.48387 0.73979,-1.64063 z m -19.60118,-5.44271 c -0.35296,-1.88141 -0.87612,-3.18638 -1.16258,-2.89992 -0.28646,0.28645 -0.23205,2.06018 0.1209,3.9416 0.35296,1.88141 0.87612,3.18638 1.16258,2.89992 0.28646,-0.28645 0.23205,-2.06018 -0.1209,-3.9416 z m 310.72916,3.33334 c 0,-0.51563 -0.58087,-0.9375 -1.29081,-0.9375 -0.70994,0 -2.21164,-2.21484 -3.33712,-4.92188 -1.12549,-2.70703 -2.64325,-6.1875 -3.37283,-7.73437 -0.72956,-1.54688 -2.6419,-6.08127 -4.24964,-10.07643 -1.60773,-3.99516 -3.33405,-7.51788 -3.83626,-7.82825 -2.29447,-1.41807 -1.74053,1.15349 1.78652,8.2936 2.1018,4.25484 5.19699,11.42749 6.87818,15.9392 2.64127,7.08822 3.35337,8.20313 5.23934,8.20313 1.20044,0 2.18262,-0.42188 2.18262,-0.9375 z m -284.17908,-1.26578 c 0.78453,-0.9453 0.70852,-1.95412 -0.30022,-3.98438 -0.74292,-1.49523 -1.76267,-5.28896 -2.26614,-8.43052 -1.2995,-8.10877 -2.90239,-13.64199 -3.79253,-13.09185 -0.77449,0.47865 0.86136,11.56514 2.66465,18.05892 1.30664,4.70531 1.2574,5.26363 -0.40793,4.62458 -1.43576,-0.55095 -2.05418,2.1911 -0.78125,3.46403 1.05283,1.05284 3.7742,0.69575 4.88342,-0.64078 z m 288.63756,-5.89259 c 2.37999,-4.78689 2.02031,-6.82042 -0.72141,-4.0787 -1.09097,1.09097 -1.58055,2.44236 -1.22267,3.37498 1.0143,2.64321 -1.90922,0.97238 -3.30273,-1.88755 -1.96876,-4.04056 -2.47589,-2.01615 -0.67573,2.69749 0.89053,2.33181 2.11159,4.21884 2.71348,4.1934 0.60188,-0.0254 2.04596,-1.96026 3.20906,-4.29962 z m -306.81376,-1.04476 c -1.0399,-6.4678 -1.42475,-7.73437 -2.35008,-7.73437 -1.19765,0 -1.16196,1.95738 0.12915,7.08486 1.27357,5.05776 3.0114,5.566 2.22093,0.64951 z m 24.85528,1.91594 c 0,-0.24393 -0.83194,-1.14395 -1.84876,-2.00004 -1.22666,-1.03276 -2.34755,-4.08025 -3.33105,-9.05652 -2.0421,-10.33254 -2.32481,-11.15163 -3.45799,-10.01845 -0.64372,0.64372 -0.30606,3.88655 1.04379,10.02434 2.42261,11.01566 3.19771,12.64383 5.70674,11.98771 1.038,-0.27145 1.88727,-0.69312 1.88727,-0.93704 z m 3.51562,-3.32219 c -0.21484,-0.64453 -0.95312,-1.17187 -1.64062,-1.17187 -0.6875,0 -1.42578,0.52734 -1.64063,1.17187 -0.23236,0.69712 0.4323,1.17188 1.64063,1.17188 1.20833,0 1.87299,-0.47476 1.64062,-1.17188 z m 3.98438,-3.42785 c 0,-0.46735 0.84375,-0.62909 1.875,-0.35941 2.01186,0.52611 2.16835,0.087 1.90785,-5.35336 -0.21491,-4.48831 -5.76158,-25.3125 -6.74214,-25.3125 -1.05094,0 -1.0139,0.30559 0.53745,4.43415 1.44121,3.8355 4.62994,23.67025 3.91954,24.38065 -0.85644,0.85644 -2.4352,-0.83349 -2.4352,-2.60668 0,-0.99341 -0.41078,-3.60524 -0.91285,-5.80404 -0.50207,-2.19881 -1.34581,-6.49391 -1.87498,-9.54468 -0.98137,-5.65788 -1.48756,-6.8965 -2.43231,-5.95176 -0.44761,0.44761 2.24738,17.91185 3.83595,24.85798 0.46157,2.01822 2.32169,3.02745 2.32169,1.25965 z m -9.59333,-11.7312 c -0.76596,-5.31655 -1.66618,-8.51599 -2.47167,-8.78449 -1.61121,-0.53706 -0.83191,7.09887 1.5412,15.10116 2.07332,6.99136 2.46483,4.33343 0.93047,-6.31667 z m 16.90394,1.79968 c -2.13614,-12.77677 -4.66302,-24.42973 -5.47534,-25.25 -1.72164,-1.73849 -2.11422,0.50062 -1.01536,5.7911 5.07737,24.44502 5.71004,26.9078 6.65511,25.90627 0.42681,-0.4523 0.35282,-3.35362 -0.16441,-6.44737 z m 271.59237,3.51562 c -0.36994,-0.90234 -0.89106,-3.42684 -1.15803,-5.60999 -0.26698,-2.18315 -1.13213,-4.50346 -1.92255,-5.15625 -1.24153,-1.02533 -1.35683,-0.86786 -0.84714,1.15687 2.17807,8.65237 3.04988,11.25 3.77569,11.25 0.45356,0 0.52197,-0.73828 0.15203,-1.64063 z m -12.32703,-8.06088 c -1.38301,-4.46105 -2.8994,-8.11099 -3.36975,-8.11099 -1.48397,0 0.24232,5.97042 4.26891,14.76421 1.95687,4.27366 1.54608,1.23412 -0.89916,-6.65322 z m -252.14158,4.98827 c -0.0532,-1.27491 -0.62125,-5.90395 -1.26214,-10.28676 -0.64089,-4.38281 -1.38846,-10.19138 -1.66127,-12.90793 -0.27281,-2.71655 -0.91461,-5.19789 -1.42624,-5.51409 -0.57855,-0.35757 -0.79057,0.8894 -0.56082,3.29856 0.55679,5.8385 -1.29338,4.94906 -3.64349,-1.75154 -1.1249,-3.20733 -1.1399,-3.16954 -0.66596,1.67733 0.64403,6.5863 2.09318,10.46334 3.2259,8.63056 1.14028,-1.84501 1.36829,-1.35996 2.64632,5.62961 1.42432,7.78964 1.40478,7.41967 0.58704,11.11059 -0.61274,2.76569 -0.48334,3.09933 1.08073,2.78676 1.2051,-0.24084 1.74564,-1.10093 1.67993,-2.67309 z m 256.06719,-4.59831 c -0.81797,-1.58177 -1.64247,-2.87595 -1.83223,-2.87595 -0.5008,0 1.28803,7.61978 2.07166,8.82454 1.39881,2.15053 1.18358,-3.19678 -0.23943,-5.94859 z m 12.62344,3.16247 c 0,-1.40915 -0.54032,-2.28842 -1.40625,-2.28842 -1.4032,0 -2.01412,3.76712 -0.80674,4.97452 1.06261,1.0626 2.21299,-0.33372 2.21299,-2.6861 z m -264.57315,-5.60266 c -0.63495,-7.6566 -2.61435,-8.9566 -2.61435,-1.71701 0,3.11094 0.28125,5.9375 0.625,6.28125 1.7171,1.7171 2.38347,0.18824 1.98935,-4.56424 z m 5.12437,2.14236 c 0.24162,-0.64453 0.10546,-2.01562 -0.30256,-3.04687 -0.40803,-1.03125 -0.77432,-3.5625 -0.81399,-5.625 -0.0723,-3.75907 -3.22597,-23.40278 -4.30094,-26.78971 -1.06333,-3.35024 -2.60072,-1.99716 -1.94473,1.71158 1.56919,8.87172 3.2705,21.02282 3.87222,27.65625 0.44635,4.92058 1.04502,7.26563 1.85487,7.26563 0.6577,0 1.39349,-0.52734 1.63513,-1.17188 z m 264.24826,-4.26208 C 434.20664,435.44937 435,434.44407 435,433.89455 c 0,-0.63606 -0.50698,-0.57838 -1.39516,0.15874 -1.63376,1.35591 -1.20574,2.39076 -4.76277,-11.51519 -2.64675,-10.3473 -4.3738,-13.94034 -3.4732,-7.22582 0.64637,4.81908 -0.97644,4.90388 -2.40797,0.12583 -1.45364,-4.8518 -1.39127,-7.00589 0.18533,-6.4009 0.98151,0.37664 1.12375,-0.18806 0.62409,-2.47782 -0.37424,-1.71502 -1.15748,-2.85031 -1.85731,-2.69215 -0.6656,0.15042 -2.0572,-0.48239 -3.09244,-1.40625 -1.81987,-1.62406 -1.86445,-1.61759 -1.34471,0.19526 1.926,6.71808 2.93275,10.43495 3.04717,11.25 0.35375,2.51984 2.91665,6.5625 4.16038,6.5625 1.72431,0 3.56771,5.35554 4.30189,12.49808 0.68011,6.61649 1.43347,8.91426 2.05302,6.26175 0.23961,-1.02585 1.22901,-2.42086 2.19866,-3.10004 z m -6.76975,-5.89037 c -0.39679,-2.51009 -1.15766,-5.31319 -1.69083,-6.22911 -0.87496,-1.50309 -0.97216,-1.45985 -0.99789,0.44407 -0.0157,1.16015 -0.45039,2.10937 -0.96601,2.10937 -0.51563,0 -0.93273,-0.94922 -0.9269,-2.10938 0.006,-1.16015 -1.44099,-6.11718 -3.21516,-11.01562 -1.77417,-4.89844 -4.5778,-12.82225 -6.23026,-17.60847 -1.65247,-4.78622 -3.20102,-8.5057 -3.44122,-8.26549 -0.60896,0.60895 2.1076,11.12273 5.01528,19.41047 5.96386,16.99871 6.92326,19.79062 6.92326,20.14704 0,0.20843 -0.84375,0.37895 -1.875,0.37895 -2.00923,0 -2.41013,0.94925 -1.00964,2.39062 0.47595,0.48985 1.00329,2.15625 1.17187,3.70313 l 0.30652,2.8125 2.02492,-4.05141 c 1.73902,-3.47939 2.11012,-3.783 2.6283,-2.15036 0.33185,1.04559 0.33923,3.50153 0.0164,5.45767 l -0.58698,3.5566 1.7874,-2.20838 c 1.48519,-1.83498 1.66543,-2.98005 1.06596,-6.7722 z m -254.92697,0.0639 c -0.44118,-2.31462 -1.28803,-8.21622 -1.88188,-13.11466 -1.43628,-11.84723 -2.80909,-18.16994 -3.73446,-17.19979 -0.41632,0.43645 0.2205,5.58752 1.41516,11.44683 1.19466,5.85931 2.47274,14.04951 2.84019,18.20044 0.40338,4.557 0.96424,7.01792 1.4156,6.21137 0.41115,-0.73467 0.38658,-3.22956 -0.0546,-5.54419 z m 6.64637,3.72736 c 2.50412,-1.34016 2.37692,-9.56824 -0.4212,-27.24642 -2.27325,-14.36217 -3.08703,-17.09217 -4.39712,-14.75117 -0.7214,1.28907 0.0972,6.62768 3.80922,24.84152 1.67083,8.1983 1.65124,12.50155 -0.0569,12.50155 -0.80954,0 -1.0525,-1.15349 -2.76458,-13.125 -1.51432,-10.58874 -3.76082,-19.6875 -4.86089,-19.6875 -0.61351,0 -0.73657,1.13857 -0.32932,3.04688 1.76627,8.27659 4.89659,29.0709 5.15119,34.21875 0.0705,1.42577 1.44788,1.49745 3.86959,0.20139 z m 259.20798,-5.82635 c -1.49445,-10.21873 -9.66723,-34.6665 -10.62666,-31.78822 -0.17563,0.52689 0.29346,2.14674 1.04243,3.59967 1.89119,3.66871 8.12712,26.33759 8.12712,29.54373 0,1.44606 0.45895,2.6292 1.01991,2.6292 0.66629,0 0.81787,-1.38143 0.4372,-3.98438 z M 160.81003,417.68094 c -0.58806,-7.05971 -1.64796,-10.91534 -2.70531,-9.84129 -0.23911,0.24288 -0.0651,2.55097 0.38683,5.1291 0.45186,2.57812 1.11775,7.21875 1.47975,10.3125 0.93537,7.99404 1.60095,3.54995 0.83873,-5.60031 z m 27.95573,7.98039 c 1.46959,-1.49825 2.41087,-3.14659 2.09172,-3.66298 -0.31915,-0.51641 -1.39713,-5.29057 -2.39551,-10.60926 -3.08456,-16.4324 -5.63184,-27.37146 -6.59893,-28.33855 -1.871,-1.871 -0.91159,4.67147 3.01253,20.54321 2.52383,10.20803 3.18698,22.03125 1.2357,22.03125 -1.10447,0 -1.43116,-1.20892 -1.4567,-5.39062 -0.0181,-2.96485 -0.60557,-7.92188 -1.30546,-11.01563 -0.69989,-3.09375 -1.96583,-8.7831 -2.8132,-12.64299 -0.84736,-3.85991 -1.9474,-7.42475 -2.44453,-7.92188 -1.32604,-1.32604 -1.16027,0.26985 1.55185,14.93987 1.33457,7.21875 2.64276,15.76172 2.9071,18.98438 0.55907,6.816 1.90103,7.48169 6.21543,3.0832 z m 228.42174,-2.37766 c 0,-0.77212 -1.72607,-6.36196 -3.83572,-12.42188 -2.10963,-6.05992 -4.21757,-12.87152 -4.6843,-15.13688 -0.46672,-2.26537 -1.25154,-4.60436 -1.74403,-5.19778 -0.4925,-0.59342 -1.50189,-3.59151 -2.2431,-6.66241 -0.847,-3.50923 -1.38623,-4.6427 -1.4515,-3.05109 -0.12984,3.16617 4.03335,18.62953 6.38547,23.71762 0.47673,1.03125 1.59328,5.03906 2.48123,8.90625 0.88795,3.86719 1.96457,7.98047 2.39249,9.14063 0.87617,2.37538 2.69946,2.85193 2.69946,0.70554 z m 26.25,-2.70043 c 0,-2.62258 -2.3697,-8.63642 -3.7358,-9.48071 -1.17873,-0.7285 -1.20381,0.32086 -0.0917,3.8357 0.47299,1.49491 1.11385,3.87818 1.42411,5.29615 0.69196,3.16241 2.4034,3.41083 2.4034,0.34886 z m -246.62827,-1.33351 c 2.68925,-2.24509 2.99637,-2.90233 2.12073,-4.53848 -0.56315,-1.05226 -1.10205,-3.77323 -1.19753,-6.0466 -0.0955,-2.27337 -0.97039,-7.5084 -1.94422,-11.6334 -0.97383,-4.125 -2.43566,-10.76953 -3.24851,-14.76563 C 191.54344,377.36784 190.63417,375 189.74964,375 c -0.72167,0 -1.31352,0.31641 -1.31521,0.70312 -0.004,0.78953 3.08995,14.39191 5.38334,23.67188 1.84776,7.47681 2.61929,16.875 1.38532,16.875 -0.49552,0 -1.17579,-1.79297 -1.51171,-3.98438 -0.33591,-2.1914 -1.20526,-6.72656 -1.93187,-10.07812 -0.72662,-3.35156 -2.02697,-9.34379 -2.88966,-13.31606 -1.67604,-7.71724 -4.79745,-13.71083 -3.80644,-7.30894 0.27937,1.80469 1.59826,8.34375 2.93087,14.53125 1.33261,6.1875 2.91177,14.51953 3.50924,18.51562 0.59748,3.9961 1.32814,7.26563 1.62369,7.26563 0.29555,0 1.95246,-1.18137 3.68202,-2.62527 z m 212.8847,-6.25229 c -0.54712,-2.44138 -1.56758,-5.55596 -2.26768,-6.92128 -1.63389,-3.1864 -5.85083,-18.89429 -6.70675,-24.98241 -0.67551,-4.80474 -3.65818,-10.26269 -5.11602,-9.3617 -0.44861,0.27725 -0.26339,2.07518 0.4116,3.99539 1.97905,5.63014 8.98492,34.53247 8.98492,37.06683 0,0.8694 0.62924,1.58073 1.39831,1.58073 0.76907,0 1.91325,0.82456 2.54263,1.83236 1.66958,2.67341 1.87511,1.79722 0.75299,-3.20992 z m 38.0178,-7.78571 c -1.21565,-1.21564 -1.55189,0.85026 -0.82894,5.09297 l 0.77346,4.53905 0.28986,-4.5539 c 0.15942,-2.50463 0.0539,-4.78979 -0.23438,-5.07812 z m -48.7784,1.79028 c -1.30484,-7.28969 -7.10438,-26.37701 -8.01449,-26.37701 -0.30553,0 0.42253,3.87945 1.6179,8.621 1.19537,4.74154 2.60978,11.3526 3.14313,14.69123 1.09123,6.83081 1.5359,7.91159 2.90661,7.06445 0.55821,-0.345 0.70273,-2.01144 0.34684,-3.99967 z m -188.87835,0.65359 c 4.3756,-3.51634 4.43641,-4.17432 1.46907,-15.89477 -1.22427,-4.83564 -2.5276,-10.69052 -2.89628,-13.01083 -0.87148,-5.48476 -4.39238,-15.9375 -5.36839,-15.9375 -1.05147,0 -0.94901,2.19409 0.24888,5.32959 0.55455,1.45154 1.42587,4.95947 1.93626,7.79541 0.51039,2.83594 1.71557,7.89844 2.67816,11.25 2.75026,9.57577 3.04442,13.09135 1.38756,16.58294 -1.69009,3.56159 -2.11466,3.72386 -3.83019,1.46393 -1.12188,-1.47788 -1.24838,-1.35389 -1.27524,1.25 -0.0268,2.59906 0.56428,4.14063 1.58767,4.14063 0.2021,0 2.03023,-1.33623 4.06249,-2.9694 z m 184.59977,0.39127 c -0.042,-2.10475 -5.92945,-25.49448 -7.96428,-31.64062 -0.85355,-2.57813 -2.51211,-7.00781 -3.68568,-9.84375 -1.17357,-2.83594 -2.38682,-5.89453 -2.6961,-6.79688 -0.30929,-0.90234 -1.31386,-1.63416 -2.2324,-1.62627 -1.03155,0.008 -1.27282,0.27769 -0.63106,0.70313 0.57143,0.37882 2.19206,4.27471 3.60139,8.65752 1.40935,4.38281 2.89136,8.39062 3.29336,8.90625 0.40202,0.51562 1.21485,3.04687 1.8063,5.625 0.59145,2.57812 1.91143,8.33109 2.93329,12.78438 1.02186,4.45328 1.85793,8.53909 1.85793,9.07959 0,0.5405 0.41143,2.06487 0.9143,3.3875 1.04028,2.73615 2.85217,3.23012 2.80295,0.76415 z m -192.65227,-2.8125 c -0.1771,-0.90234 -0.96656,-4.80468 -1.75437,-8.67187 -0.78781,-3.86719 -1.67723,-8.61328 -1.97648,-10.54688 -0.29925,-1.93359 -0.9938,-3.51562 -1.54344,-3.51562 -0.63448,0 -0.7844,1.2836 -0.41061,3.51562 2.61398,15.60881 3.83739,20.85938 4.86033,20.85938 0.63061,0 1.00166,-0.73828 0.82457,-1.64063 z m 185.9949,-6.43315 c -1.61595,-7.25221 -2.75752,-11.51445 -6.87692,-25.67622 -1.64398,-5.65173 -7.42951,-18.05072 -9.05038,-19.39593 -0.71463,-0.59308 -2.51212,-1.38273 -3.99443,-1.75476 -2.10173,-0.5275 -2.57977,-0.38929 -2.17125,0.62776 0.28813,0.7173 1.46087,4.2573 2.60609,7.86668 4.88006,15.38029 11.67043,34.21875 12.33423,34.21875 0.39478,0 0.71778,-0.86646 0.71778,-1.92547 0,-2.13001 -5.06258,-17.6831 -9.50868,-29.21221 -2.8656,-7.43075 -3.16408,-10.17978 -0.66853,-6.1572 2.50558,4.03874 5.39803,11.53201 9.14878,23.70113 3.38169,10.97166 4.3476,14.61687 6.14844,23.20312 0.29739,1.41797 1.11967,2.57813 1.8273,2.57813 1.05077,0 0.95686,-1.47977 -0.51243,-8.07378 z m -3.62238,6.31597 c 0,-2.38796 -1.27999,-6.67969 -1.99219,-6.67969 -0.93915,0 -1.09824,3.80987 -0.25126,6.01707 0.60186,1.56842 2.24345,2.05327 2.24345,0.66262 z M 220.81192,393.28441 c -0.59815,-5.36109 -1.71272,-8.0086 -2.88009,-6.84125 -0.2953,0.29531 0.11954,3.07027 0.92188,6.16658 1.83611,7.0858 1.83631,7.08267 -0.41621,6.49362 -1.13038,-0.2956 -1.875,-0.0288 -1.875,0.67191 0,2.12381 1.23229,2.43605 3.06573,0.77681 1.56308,-1.41457 1.72549,-2.4117 1.18369,-7.26767 z m -17.34609,0.1742 c -0.54078,-3.38516 -1.37445,-7.13021 -1.85261,-8.32234 l -0.86937,-2.16752 -0.0365,2.34375 c -0.0323,2.06992 0.49418,5.02686 2.31462,13.00125 1.0565,4.62797 1.38492,1.03559 0.44387,-4.85514 z m 174.34667,5.36714 c 0,-2.11876 -3.37214,-12.57575 -4.0554,-12.57575 -0.46793,0 -0.58285,0.94922 -0.25539,2.10937 0.32747,1.16016 1.04444,4.11329 1.59328,6.5625 0.54883,2.44922 1.3848,4.45313 1.85769,4.45313 0.4729,0 0.85982,-0.24716 0.85982,-0.54925 z m -162.17543,-8.7163 c -0.64072,-2.89613 -1.50172,-6.53132 -1.91334,-8.0782 -0.41162,-1.54688 -1.01119,-5.13281 -1.33238,-7.96875 -0.81425,-7.18927 -4.11403,-16.875 -5.74903,-16.875 -1.69791,0 -1.68886,0.14412 0.50022,7.96875 1.00978,3.60937 2.9343,10.99219 4.2767,16.40625 3.23748,13.05708 4.42198,16.67455 4.94743,15.10945 0.23944,-0.71323 -0.0889,-3.66635 -0.7296,-6.5625 z m 151.14873,6.85475 c 0.2947,-0.29469 -0.69635,-3.25327 -2.20232,-6.57461 -1.77379,-3.91201 -2.54004,-6.82803 -2.17569,-8.27973 0.38639,-1.53952 0.0774,-2.51233 -0.98701,-3.10804 -1.56167,-0.87394 -5.41306,-8.93596 -13.33228,-27.90807 -4.71517,-11.29616 -5.26562,-12.22209 -6.72832,-11.3181 -0.64847,0.40078 -0.19094,2.42064 1.32457,5.84747 1.27339,2.87935 2.32292,5.71004 2.33228,6.29041 0.009,0.58037 2.37257,6.75053 5.25156,13.71147 2.87899,6.96094 6.57068,16.03125 8.20377,20.15625 1.63309,4.125 3.50349,8.44922 4.15644,9.60937 1.13297,2.01309 3.00781,2.72278 4.157,1.57358 z m 6.3392,-0.23648 c 0,-2.01531 -4.97219,-17.10136 -7.02317,-21.30893 -1.27011,-2.6056 -3.6329,-8.93373 -5.25067,-14.0625 -3.80154,-12.05194 -4.22563,-14.00176 -2.86209,-13.15905 0.59039,0.36488 1.07343,1.3884 1.07343,2.27449 0,0.88609 0.64492,2.53184 1.43317,3.65721 0.78825,1.12538 2.91208,6.13167 4.71962,11.12509 4.01954,11.10417 7.10425,18.36393 7.59457,17.87361 0.20181,-0.20181 -0.67231,-3.69511 -1.94249,-7.76291 -1.27018,-4.06779 -2.96366,-9.96627 -3.7633,-13.10773 -2.79039,-10.9623 -4.75638,-14.17438 -10.1907,-16.64981 -6.9328,-3.15801 -9.10087,-3.74598 -9.10087,-2.46813 0,0.59285 1.20678,3.89081 2.68172,7.32881 1.47495,3.43798 2.93826,6.98916 3.25183,7.8915 0.31356,0.90235 1.00522,1.64063 1.53703,1.64063 1.2912,0 1.30505,0.0604 -1.37683,-6.00383 -2.51021,-5.67604 -2.81968,-7.12117 -1.52497,-7.12117 0.92684,0 5.47444,11.25557 8.52255,21.09375 4.81711,15.54789 12.22117,32.97118 12.22117,28.75897 z M 360,394.33354 c 0,-0.7103 -0.58197,-1.77445 -1.29327,-2.36477 -0.71129,-0.59033 -1.55081,-2.36108 -1.8656,-3.93499 -0.31478,-1.57392 -2.05312,-5.98214 -3.86299,-9.79605 -1.80985,-3.81391 -3.29064,-7.33039 -3.29064,-7.81438 0,-0.484 -1.26529,-3.5546 -2.81176,-6.82355 -1.54647,-3.26896 -2.8121,-6.596 -2.8125,-7.39345 -7.2e-4,-1.4184 -5.40807,-15.21672 -6.87148,-17.53448 -0.40696,-0.64453 -1.09247,-1.17187 -1.52336,-1.17187 -0.97677,0 0.15788,5.01942 2.11922,9.375 0.81266,1.80469 3.24018,7.71094 5.39451,13.125 2.15433,5.41406 4.86289,11.74219 6.01902,14.0625 1.15615,2.32031 2.85541,6.53906 3.77615,9.375 0.92075,2.83594 2.45564,6.16237 3.41089,7.39206 0.95524,1.22969 1.73681,2.81172 1.73681,3.51562 0,0.7039 0.42187,1.27982 0.9375,1.27982 0.51562,0 0.9375,-0.58116 0.9375,-1.29146 z m -128.30066,-2.51765 c 1.58936,-2.19114 1.58023,-2.62995 -0.22314,-10.72214 -5.50214,-24.68961 -9.96546,-40.78125 -11.31147,-40.78125 -1.01963,0 -1.02962,2.55358 -0.0125,3.18223 0.4275,0.26422 1.32992,2.92584 2.00535,5.91471 0.67544,2.98887 2.64598,11.41265 4.37897,18.71951 3.13539,13.21986 3.92692,19.64882 2.29496,18.64022 -0.47075,-0.29095 -1.14101,-2.31975 -1.48945,-4.50846 -0.34844,-2.1887 -1.60434,-7.98727 -2.79088,-12.88571 -1.18654,-4.89844 -2.89284,-12.82869 -3.79178,-17.6228 -1.30325,-6.95037 -1.93675,-8.65832 -3.12652,-8.42919 -2.92556,0.56341 -4.67769,8.23949 -1.88074,8.23949 0.46531,0 0.56552,-1.11761 0.22269,-2.48358 -0.40311,-1.60609 -0.28162,-2.27239 0.34384,-1.88583 1.0611,0.65579 2.77268,7.10645 5.88561,22.18191 1.67403,8.10704 2.75533,13.02013 5.53655,25.15625 0.20028,0.87399 2.49832,-0.70238 3.95845,-2.71536 z m 118.41407,-9.347 c -2.37643,-5.39695 -5.94208,-13.82045 -7.92365,-18.71889 -1.98157,-4.89844 -5.11303,-12.14813 -6.95881,-16.11043 -1.84577,-3.9623 -3.35595,-8.24139 -3.35595,-9.50907 0,-2.28986 -2.29781,-4.09674 -3.25018,-2.55577 -0.4573,0.73993 3.27458,10.57365 8.37993,22.08152 1.14376,2.57812 3.23393,7.64062 4.64483,11.25 4.05554,10.3749 12.09794,26.39349 12.4576,24.81264 0.17985,-0.79054 -1.61734,-5.85304 -3.99377,-11.25 z m -10.77226,6.97332 c -0.50872,-1.33803 -2.55654,-5.24038 -4.5507,-8.67188 -3.63031,-6.24693 -8.94214,-17.12886 -12.65563,-25.92658 -4.16435,-9.8659 -9.29068,-16.70068 -7.6635,-10.21754 0.99199,3.95246 17.07862,36.72125 20.72025,42.2076 3.55978,5.36301 5.71101,6.71527 4.14958,2.6084 z m -8.00229,-4.36409 c -1.83191,-3.22265 -4.08885,-7.54687 -5.01543,-9.60937 -6.80165,-15.14002 -14.39183,-29.53125 -15.57528,-29.53125 -0.75523,0 -1.37315,0.38449 -1.37315,0.85443 0,1.51232 6.56138,16.28549 10.23828,23.05182 1.96137,3.60937 4.07661,8.13793 4.70054,10.06346 0.62392,1.92553 2.21545,4.35131 3.53673,5.39063 1.32127,1.03931 2.0691,1.88966 1.66183,1.88966 -0.40726,0 0.0231,0.84375 0.95637,1.875 0.93327,1.03125 2.26026,1.875 2.94885,1.875 0.82261,0 0.10966,-2.00959 -2.07874,-5.85938 z m 15.54859,2.13944 c -0.64759,-1.56341 -1.58328,-2.84256 -2.07931,-2.84256 -0.49604,0 -0.74773,0.31641 -0.55931,0.70312 2.19362,4.50225 2.99965,5.79841 3.37339,5.42465 0.24346,-0.24346 -0.0872,-1.7218 -0.73477,-3.28521 z m -123.61518,-1.57605 c -0.5024,-1.98565 -1.18755,-5.5087 -1.52255,-7.82901 -0.33498,-2.32031 -1.22133,-5.48438 -1.96965,-7.03125 l -1.36057,-2.8125 0.56366,3.28125 c 1.87976,10.94256 3.11006,16.9015 3.67991,17.82352 1.21248,1.96185 1.52643,0.19315 0.6092,-3.43201 z m 15.75295,2.52637 c 1.18097,-0.747 1.14879,-1.10921 -0.23437,-2.63759 -0.88184,-0.97443 -1.60816,-2.37127 -1.61404,-3.10411 -0.006,-0.73283 -1.26227,-5.48364 -2.79198,-10.55735 -1.52971,-5.0737 -3.43711,-12.39992 -4.23866,-16.28049 -0.80155,-3.88057 -2.28735,-8.77344 -3.30177,-10.87305 -1.01442,-2.09961 -1.8444,-4.37105 -1.8444,-5.04763 0,-0.67658 -0.36381,-1.23016 -0.80845,-1.23016 -0.44466,0 0.40273,4.53516 1.88308,10.07812 1.48035,5.54297 3.34719,13.24219 4.14854,17.10938 0.80135,3.86719 2.27426,9.81893 3.27316,13.22607 0.99889,3.40716 1.81617,7.09856 1.81617,8.20313 0,2.12156 1.43756,2.55277 3.71272,1.11368 z m 99.59559,-9.23301 c -2.57004,-5.13373 -4.97384,-10.33408 -5.3418,-11.55633 -2.07062,-6.87807 -12.15895,-28.00354 -13.37291,-28.00354 -0.94514,0 -1.22225,0.65911 -0.88685,2.10937 0.73639,3.18412 12.28357,29.08625 15.2441,34.19491 4.16086,7.17993 8.28373,13.33614 8.67158,12.94829 0.19727,-0.19726 -1.74409,-4.55898 -4.31412,-9.6927 z M 322.5,386.36479 c 0,-0.45249 -0.63281,-1.34789 -1.40625,-1.98979 -0.77344,-0.6419 -1.40625,-1.62009 -1.40625,-2.17377 0,-1.70908 -4.87112,-8.13873 -6.16592,-8.13873 -2.61782,0 -2.21302,2.0641 1.46774,7.48428 2.49833,3.67894 4.4705,5.64072 5.67061,5.64072 1.01204,0 1.84007,-0.37022 1.84007,-0.82271 z m -9.375,-2.85061 c 0,-1.92327 -1.21568,-3.82668 -2.44405,-3.82668 -1.62276,0 -1.73553,3.42041 -0.13408,4.06661 1.86218,0.75141 2.57813,0.68478 2.57813,-0.23993 z m -65.89417,-6.40481 c -0.29127,-2.96484 -1.57095,-8.76562 -2.84371,-12.89062 -1.27278,-4.125 -3.24765,-11.50781 -4.38861,-16.40625 -2.15701,-9.2606 -6.3294,-21.3087 -7.66538,-22.13438 -1.28067,-0.7915 -0.89735,1.30553 1.96633,10.75721 1.50532,4.96838 3.45428,11.56467 4.33102,14.65842 0.87673,3.09375 2.35575,8.15625 3.2867,11.25 0.93095,3.09375 2.46245,8.89409 3.40335,12.88965 0.94089,3.99556 1.87478,7.26509 2.0753,7.26563 0.20053,5.3e-4 0.12628,-2.42481 -0.165,-5.38966 z m 96.34817,2.51101 c -0.67679,-3.08144 -4.98273,-13.21269 -7.99477,-18.81052 -1.00883,-1.8749 -1.83423,-3.91708 -1.83423,-4.53818 0,-2.50751 -7.84805,-18.77168 -9.05801,-18.77168 -1.85186,0 -0.74105,3.73675 3.62295,12.1875 1.99702,3.86719 4.29469,8.92969 5.10591,11.25 1.81729,5.19788 7.85427,18.79508 9.05318,20.39062 1.42874,1.90141 1.77884,1.36034 1.10497,-1.70774 z m -125.53837,-0.16726 c -0.42594,-2.07687 -1.25339,-6.90198 -2.13024,-12.42187 -0.94266,-5.93434 -3.77933,-14.91465 -4.82084,-15.26182 -1.49074,-0.49691 -1.37817,1.18816 0.68585,10.26592 0.97647,4.29462 2.29974,10.44512 2.9406,13.66777 0.75565,3.7999 1.62073,5.85938 2.46122,5.85938 0.84718,0 1.14619,-0.7305 0.86341,-2.10938 z m 87.95121,0.77562 c -0.55134,-1.43678 -3.14948,-2.7586 -3.91587,-1.99221 -0.72525,0.72525 1.7501,3.32597 3.16565,3.32597 0.70616,0 1.0366,-0.58747 0.75022,-1.33376 z m -106.41081,-4.31666 c -0.94051,-4.20206 -2.70603,-7.23364 -2.70603,-4.64655 0,1.5447 2.94768,9.53679 3.36389,9.12058 0.15439,-0.15439 -0.14166,-2.1677 -0.65786,-4.47403 z m 53.73015,4.21424 c 0.62192,-0.62192 -2.12901,-12.38903 -5.36265,-22.93882 -1.34339,-4.38281 -3.4244,-11.55469 -4.62446,-15.9375 -1.20007,-4.38281 -3.22745,-10.28906 -4.50531,-13.125 -1.27786,-2.83594 -2.62254,-6.41591 -2.98818,-7.9555 -0.53462,-2.25109 -0.82776,-2.50806 -1.49697,-1.31224 -0.56544,1.01039 0.23835,4.46176 2.50777,10.768 1.83698,5.10454 3.74522,10.96849 4.24055,13.03099 0.49533,2.0625 1.29828,4.15078 1.78434,4.64062 0.48605,0.48985 0.88373,1.97489 0.88373,3.3001 0,1.3252 0.79613,5.35411 1.76917,8.95312 0.97304,3.59901 2.05482,8.23116 2.40395,10.29366 1.48982,8.80092 3.33959,12.33104 5.38806,10.28257 z m -11.76881,-9.73357 c -1.95847,-7.40388 -2.24457,-7.89542 -4.65684,-8.00102 -1.84933,-0.0809 -2.48654,0.29094 -2.27198,1.32601 0.16399,0.79118 0.9612,1.32832 1.77155,1.19363 1.10081,-0.18294 2.01739,1.66565 3.62459,7.31018 2.84056,9.97606 4.21993,8.33017 1.53268,-1.8288 z m 15.94086,3.38522 c -0.68751,-1.64819 -1.77848,-5.31703 -2.42438,-8.15297 -1.39946,-6.1446 -1.66295,-7.04227 -7.0173,-23.90625 -2.29198,-7.21875 -5.51537,-16.28906 -7.16311,-20.15625 -1.64774,-3.86719 -3.37374,-8.0234 -3.83554,-9.23603 -0.71055,-1.86581 -1.06345,-2.01901 -2.29546,-0.99654 -1.29826,1.07746 -1.24123,1.37008 0.5269,2.70379 1.09923,0.82915 2.81488,4.16927 3.85022,7.49586 1.02714,3.30017 2.24111,6.45061 2.69774,7.00098 1.32353,1.59526 5.57448,13.41752 5.48764,15.26158 -0.0434,0.92214 1.66907,7.76423 3.80555,15.20465 2.13649,7.44043 3.88451,14.47168 3.88451,15.625 0,2.02018 1.59806,3.35884 3.0385,2.5453 0.38211,-0.21582 0.13224,-1.74092 -0.55527,-3.38912 z m 130.63043,-4.4357 c -1.24537,-3.59137 -2.59604,-6.52977 -3.00149,-6.52977 -1.00887,0 -0.94609,0.32258 0.6633,3.40846 0.77026,1.47691 1.40308,3.40372 1.40625,4.28181 0.007,2.08807 2.04001,6.52549 2.69079,5.87472 0.27799,-0.27799 -0.5135,-3.44383 -1.75885,-7.03522 z m -124.37577,1.26195 c -0.0926,-2.12168 -0.98961,-5.48106 -1.99337,-7.46529 -1.00376,-1.98422 -3.36167,-8.6508 -5.2398,-14.81463 -1.87814,-6.16382 -3.99764,-12.09647 -4.70999,-13.18368 -0.71237,-1.0872 -2.34318,-4.90344 -3.62404,-8.48055 -3.4741,-9.70222 -8.51598,-21.41695 -9.53099,-22.14509 -0.49166,-0.3527 -1.29438,-0.39377 -1.78383,-0.0913 -0.49689,0.30709 -0.27009,1.00433 0.51354,1.57876 0.77191,0.56583 2.56192,4.61471 3.97781,8.99752 1.41588,4.38282 2.90867,8.39063 3.31731,8.90625 1.28593,1.62263 5.71121,14.70114 7.48965,22.13499 1.59892,6.68345 5.67775,20.50912 7.7956,26.42402 1.48505,4.14758 3.9965,2.91375 3.78811,-1.86104 z m 33.44961,2.16907 c 0,-0.19344 -1.41263,-3.46297 -3.13917,-7.26563 -1.72655,-3.80265 -4.34165,-10.39438 -5.81133,-14.64829 -2.67463,-7.74153 -4.07723,-9.58253 -4.28552,-5.625 -0.14539,2.7624 -0.25422,2.29449 1.90793,8.20313 5.02351,13.72808 8.03685,19.6875 9.95482,19.6875 0.7553,0 1.37327,-0.15827 1.37327,-0.35171 z m -5.625,-0.87909 c 0,-0.1613 -1.02455,-2.41708 -2.27677,-5.01281 -1.25223,-2.59574 -3.66751,-8.26454 -5.3673,-12.59734 -4.2627,-10.86575 -4.62476,-6.56662 -0.42423,5.03751 4.00575,11.06605 4.94236,12.86594 6.69503,12.86594 0.7553,0 1.37327,-0.13198 1.37327,-0.2933 z m 10.3125,-0.62459 c 0,-1.68582 -5.14446,-12.16632 -5.98204,-12.18686 -1.3613,-0.0334 0.10676,6.38472 2.2558,9.86195 1.92796,3.11949 3.72624,4.2415 3.72624,2.32491 z m -33.64841,-6.11336 c -0.91121,-2.57813 -2.69669,-7.00781 -3.96774,-9.84375 -1.27104,-2.83594 -2.87983,-6.92721 -3.57508,-9.09171 -0.69525,-2.16451 -1.83665,-4.15517 -2.53643,-4.4237 -1.33524,-0.51238 -1.73427,0.55348 -0.62318,1.66457 0.35704,0.35703 0.77855,1.497 0.93669,2.53325 0.27412,1.79621 4.91223,14.11257 8.23314,21.86284 2.24712,5.24429 3.53722,2.97026 1.5326,-2.7015 z m 43.44844,3.04687 c -0.35135,-1.16015 -1.47369,-3.48825 -2.49407,-5.17354 -1.0204,-1.6853 -2.61929,-5.0603 -3.55309,-7.5 -0.93381,-2.43971 -5.11334,-11.73237 -9.28785,-20.65038 -4.17451,-8.918 -7.59002,-16.52508 -7.59002,-16.90463 0,-0.65644 -16.68883,-33.0156 -17.44943,-33.83395 -0.19969,-0.21484 -0.6223,-0.13139 -0.93914,0.18545 -0.61627,0.61626 -0.3512,1.22024 9.96467,22.70518 9.76366,20.33485 10.77567,22.63685 13.60071,30.9375 1.40391,4.125 5.29322,13.08984 8.64293,19.92187 4.70887,9.60417 6.50478,12.42188 7.91725,12.42188 1.4588,0 1.69816,-0.42498 1.18804,-2.10938 z m -36.74259,-0.9375 c 0.22065,-0.64453 -0.54548,-3.70312 -1.70253,-6.79687 -1.15703,-3.09375 -3.41424,-9.12433 -5.016,-13.40128 -1.60176,-4.27696 -3.9099,-9.76134 -5.12919,-12.1875 -1.21929,-2.42618 -2.53099,-5.46591 -2.91488,-6.75497 -1.42779,-4.79437 -14.57271,-30.9375 -15.55555,-30.9375 -0.5613,0 -0.87992,0.31641 -0.70804,0.70312 2.15173,4.8414 12.03125,30.45141 12.03125,31.18781 0,0.54315 0.61158,1.92191 1.35907,3.06393 0.74748,1.14201 3.7417,7.98264 6.6538,15.20139 6.94354,17.21216 8.73677,21.09375 9.74494,21.09375 0.45976,0 1.01647,-0.52734 1.23713,-1.17188 z m 26.05709,-6.89759 c -1.07238,-2.42429 -2.16709,-4.19047 -2.43269,-3.92487 -0.26561,0.26561 0.47779,2.64867 1.652,5.2957 1.1742,2.64703 2.26891,4.41322 2.43269,3.92487 0.16378,-0.48835 -0.57962,-2.87141 -1.652,-5.2957 z m -18.7372,0.80384 c -0.40797,-1.41796 -1.64415,-4.25938 -2.74706,-6.31424 -1.1029,-2.05486 -2.00527,-4.87762 -2.00527,-6.27279 0,-2.59183 -1.3433,-4.26611 -2.24813,-2.80207 -1.16574,1.88623 5.53894,17.77999 7.57331,17.95288 0.0929,0.007 -0.16487,-1.14581 -0.57285,-2.56378 z m 29.49897,-1.8447 c -0.3517,-1.40131 -1.60023,-4.67085 -2.77448,-7.26563 -1.17427,-2.59478 -2.6969,-6.61623 -3.38364,-8.93654 -0.68674,-2.32031 -3.0176,-7.80469 -5.17968,-12.1875 -2.16208,-4.38281 -5.03683,-10.74101 -6.38834,-14.12933 -1.3515,-3.38832 -4.40867,-9.71644 -6.7937,-14.0625 -2.38503,-4.34606 -4.99993,-9.16754 -5.81087,-10.71442 -0.81096,-1.54688 -3.4847,-6.12418 -5.94165,-10.17179 -2.45697,-4.04762 -5.00877,-8.58278 -5.67068,-10.07813 -1.26807,-2.86478 -3.31866,-3.90194 -2.13175,-1.07821 1.347,3.20461 1.59972,5.85938 0.55778,5.85938 -0.57573,0 -1.04679,0.84375 -1.04679,1.875 0,1.03125 0.44677,1.875 0.99283,1.875 0.54606,0 0.75011,-0.39273 0.45346,-0.87272 -0.95231,-1.54086 1.1103,-1.97151 2.34088,-0.48874 3.095,3.72924 31.306,60.61395 33.22079,66.98646 0.38733,1.28906 1.6559,4.24219 2.81904,6.5625 1.16313,2.32031 2.58291,5.37891 3.15505,6.79687 1.33994,3.32087 2.41279,3.34141 1.58175,0.0303 z m -94.29144,-2.27964 c -0.88155,-3.07378 -1.83486,-4.60437 -1.83486,-2.94597 0,2.61723 1.25236,6.75201 1.92007,6.33933 0.41487,-0.2564 0.37651,-1.78341 -0.0852,-3.39336 z m 17.86202,-8.57266 c -2.32137,-8.71617 -5.25955,-18.04743 -6.12218,-19.44319 -0.31859,-0.5155 -0.9949,-0.68038 -1.50293,-0.36641 -0.57134,0.35311 -0.40844,1.35716 0.42706,2.63231 0.7429,1.13379 2.47565,6.2627 3.85058,11.39756 3.50364,13.08493 4.52106,16.07973 4.9892,14.68598 0.22402,-0.66694 -0.51476,-4.67475 -1.64173,-8.90625 z m 58.58703,4.25951 c -0.36668,-0.90235 -0.99831,-2.74199 -1.40363,-4.08808 -1.84543,-6.12885 -4.69278,-8.59615 -4.69278,-4.06641 0,3.0118 3.79593,9.77827 5.49093,9.78789 0.84135,0.005 1.0464,-0.54838 0.60548,-1.63341 z m -20.92963,-3.90828 c -0.86294,-2.02064 -1.71741,-3.52548 -1.89881,-3.34407 -0.59185,0.59184 1.85539,7.01797 2.67261,7.01797 0.43735,0 0.0892,-1.65325 -0.7738,-3.6739 z m -43.91282,-9.28477 c -1.78439,-4.5426 -3.39358,-5.29538 -2.1654,-1.01297 0.82597,2.88 2.75428,5.8788 3.37871,5.25438 0.17879,-0.1788 -0.3672,-2.08743 -1.21331,-4.24141 z m 45.16053,-0.23301 c -0.79335,-1.76802 -1.8132,-3.84738 -2.26634,-4.62082 -0.72346,-1.23486 -8.79741,-20.83528 -11.19926,-27.1875 -0.48742,-1.28906 -1.8842,-3.82031 -3.10398,-5.625 -1.21977,-1.80469 -3.64645,-6.44531 -5.39263,-10.3125 -3.76279,-8.3333 -4.27833,-9.05557 -3.34582,-4.6875 0.90647,4.24607 7.93615,20.76075 13.16892,30.9375 6.86509,13.35127 9.78712,19.79768 9.78712,21.59175 0,1.92322 3.03237,5.40489 3.496,4.014 0.16415,-0.49245 -0.35065,-2.34192 -1.14401,-4.10993 z m 35.73574,1.23855 c -0.26187,-0.90234 -0.93663,-3.32812 -1.49947,-5.39062 -0.56284,-2.0625 -3.08889,-7.54688 -5.61346,-12.1875 -2.52456,-4.64063 -6.1671,-11.51453 -8.09451,-15.27534 -3.31796,-6.47405 -5.06779,-8.87068 -5.06779,-6.94101 0,0.47468 1.6875,4.46408 3.75,8.86535 2.0625,4.40125 3.75,8.40416 3.75,8.89534 0,0.49118 2.10937,4.77522 4.6875,9.52008 2.57812,4.74488 4.6875,9.58943 4.6875,10.76568 0,2.46033 0.70219,3.38865 2.56317,3.38865 0.80703,0 1.12966,-0.63236 0.83706,-1.64063 z m -29.65023,-0.26735 c 0,-0.65799 0.60376,-0.64736 1.875,0.033 2.28214,1.22136 2.39798,0.22637 0.31921,-2.7415 -1.45118,-2.07184 -1.44965,-2.29883 0.0227,-3.37543 1.71948,-1.25733 2.05012,-0.32653 -7.15159,-20.13309 -12.61186,-27.14685 -12.10447,-26.12581 -18.00833,-36.23888 -2.97655,-5.09867 -6.11948,-8.97659 -6.11948,-7.55051 0,0.27649 1.23784,2.96486 2.75076,5.97417 1.51291,3.0093 4.84135,10.1522 7.39654,15.87309 2.55519,5.7209 5.76002,12.16668 7.12185,14.32396 1.36183,2.15727 2.74315,5.28123 3.06959,6.94212 0.32644,1.66089 2.00097,6.52392 3.72115,10.80674 1.72019,4.28281 3.11358,8.29062 3.09642,8.90625 -0.0611,2.19239 -3.64569,-3.26467 -5.60214,-8.5285 -1.09411,-2.94371 -2.78406,-6.71113 -3.75544,-8.37207 -0.97137,-1.66094 -2.04216,-4.61406 -2.37952,-6.5625 -0.33736,-1.94844 -1.95789,-5.86293 -3.60118,-8.69887 -1.6433,-2.83594 -3.57042,-6.63281 -4.2825,-8.4375 -2.19146,-5.55399 -8.37187,-17.63933 -9.32057,-18.22566 -2.51582,-1.55485 -1.61739,2.19196 2.28964,9.54882 2.39752,4.51444 4.67768,8.62997 5.06705,9.14559 0.38936,0.51562 2.23407,4.52344 4.09936,8.90625 1.86527,4.38281 4.24925,9.63998 5.29771,11.6826 1.04845,2.04262 1.90628,4.29784 1.90628,5.0116 0,0.71377 0.59251,2.41753 1.31668,3.78615 0.72417,1.36862 3.02504,6.17981 5.11305,10.69152 3.32951,7.19435 5.75777,10.24462 5.75777,7.23265 z m 34.20238,-0.87804 c 0.30968,-0.50106 -0.0359,-1.87216 -0.76793,-3.04687 -0.73205,-1.17473 -1.57393,-3.46271 -1.87087,-5.08442 -0.43499,-2.37572 -6.5507,-13.1323 -8.67317,-15.25477 -0.9572,-0.95721 1.6125,5.08353 5.29724,12.45252 2.02804,4.05579 3.68735,8.38001 3.68735,9.60937 0,2.26125 1.29342,2.99715 2.32738,1.32417 z m -27.87666,-12.77057 c -1.6878,-4.07669 -4.73168,-10.57622 -6.76418,-14.44341 -2.03251,-3.86719 -5.06539,-9.97763 -6.73974,-13.57875 -1.67435,-3.60112 -3.46499,-6.68773 -3.9792,-6.85913 -1.56952,-0.52318 0.30228,4.48577 5.41918,14.50182 2.64039,5.16842 4.80072,9.74392 4.80072,10.16779 0,0.99671 9.70149,18.25427 10.06017,17.8956 0.14948,-0.14947 -1.10915,-3.60724 -2.79695,-7.68392 z m 31.15369,5.00971 c -0.0602,-3.42329 -23.34484,-46.09659 -28.62774,-52.46535 -1.16041,-1.39892 -2.30336,-3.08642 -2.5399,-3.75 -0.23655,-0.66359 -0.78577,-0.87342 -1.22052,-0.4663 -0.70808,0.6631 2.45195,7.507 7.01703,15.19728 0.91825,1.54687 4.11947,7.24219 7.11383,12.65625 2.99434,5.41406 6.60821,11.74219 8.03082,14.0625 1.4226,2.32031 3.91536,6.85547 5.53948,10.07812 2.74787,5.4525 4.73537,7.4402 4.687,4.6875 z m -66.09757,-6.83816 c -2.21649,-5.16602 -2.35176,-5.30561 -1.80839,-1.86611 0.64728,4.09734 3.3486,9.97655 3.87269,8.42861 0.18226,-0.53834 -0.74667,-3.49146 -2.0643,-6.5625 z m 69.87509,1.46049 c -0.57656,-1.07732 -0.77901,-2.80724 -0.44987,-3.84427 0.7068,-2.22694 -1.78196,-6.48118 -3.79154,-6.48118 -1.53576,0 -7.01552,-7.06646 -7.01552,-9.04691 0,-0.69608 -0.41621,-1.26559 -0.92492,-1.26559 -0.50871,0 -1.56893,-1.54133 -2.35606,-3.42519 -0.78712,-1.88386 -1.66789,-3.18843 -1.95727,-2.89905 -0.9338,0.93378 8.80676,17.98149 10.77622,18.86028 1.25011,0.55782 2.41299,2.65801 3.38315,6.11009 2.13383,7.59272 2.58519,8.49076 3.02144,6.0116 0.19947,-1.13355 -0.10906,-2.94245 -0.68563,-4.01978 z M 244.47848,306.0926 c -3.04925,-7.28375 -5.41598,-9.98029 -5.41598,-6.17072 0,1.07421 0.4434,1.95312 0.98534,1.95312 0.54193,0 1.59662,1.47656 2.34375,3.28125 3.53024,8.52731 4.40853,10.23875 4.77062,9.29604 0.21473,-0.55905 -0.99294,-4.32091 -2.68373,-8.35969 z m 56.0189,3.60999 c -1.34264,-2.50048 -4.53437,-8.53236 -7.09272,-13.40416 -4.65688,-8.86797 -6.52966,-11.66484 -6.52966,-9.75161 0,0.54138 2.05549,4.76732 4.56775,9.39097 2.51227,4.62365 5.48179,10.47298 6.59895,12.9985 1.84352,4.16758 3.72377,6.48574 4.5723,5.6372 0.17851,-0.17851 -0.77397,-2.37041 -2.11662,-4.8709 z m 19.49638,-2.86829 c -1.84716,-1.65854 -7.00347,-12.99446 -10.25147,-22.53743 -0.92135,-2.70703 -2.0629,-4.92187 -2.53678,-4.92187 -1.67511,0 2.12863,11.22209 7.31741,21.58833 4.30246,8.59556 5.15818,9.73057 6.39992,8.48883 0.62808,-0.62808 0.31991,-1.49641 -0.92908,-2.61786 z m -8.35708,-5.18278 c -4.20533,-7.02856 -4.01385,-6.77435 -4.63498,-6.15322 -0.27407,0.27406 0.9954,2.76638 2.82104,5.53847 1.82564,2.7721 3.59253,5.8877 3.92642,6.92357 0.35824,1.11143 0.76954,1.40753 1.00344,0.72243 0.21802,-0.63854 -1.18415,-3.8026 -3.11592,-7.03125 z m -61.78933,-6.08375 c -1.84665,-4.93739 -3.06028,-6.81777 -4.40032,-6.81777 -1.20008,0 -0.0719,3.37614 2.75529,8.24547 2.97057,5.11624 3.8176,4.38112 1.64503,-1.4277 z m 36.5556,-3.07817 c -0.66213,-2.08618 -9.90203,-17.96082 -11.75072,-20.18835 -0.64318,-0.77498 -1.36967,-1.20882 -1.61441,-0.96408 -0.4762,0.47622 12.75814,23.03783 13.51369,23.03783 0.24741,0 0.18056,-0.84843 -0.14856,-1.8854 z m 19.54748,0.24477 c -0.24009,-0.90234 -1.7042,-3.11718 -3.25358,-4.92187 -2.13508,-2.48691 -2.53865,-2.71387 -1.66702,-0.9375 1.09154,2.22457 4.71573,7.5 5.15246,7.5 0.11257,0 0.008,-0.73828 -0.23186,-1.64063 z m 11.86207,-0.26111 c 0,-1.71082 -5.62223,-12.16076 -6.54268,-12.16076 -0.48987,0 -0.0214,2.00391 1.04111,4.45312 1.06249,2.44922 2.30268,5.40235 2.75598,6.5625 0.83215,2.12978 2.74559,2.92785 2.74559,1.14514 z m -57.28769,-20.54803 c -2.20644,-3.69916 -4.38023,-6.95349 -4.83064,-7.23186 -2.01201,-1.2435 -1.58247,0.92865 1.26808,6.41244 3.78301,7.27761 5.58736,9.53208 6.72136,8.39808 0.51222,-0.51222 -0.74955,-3.53949 -3.1588,-7.57866 z m 43.22519,3.11406 c 0,-2.57314 1.92127,-5.22623 3.11226,-4.29773 3.89799,3.03889 9.07524,1.41301 9.07524,-2.85002 0,-2.2989 -0.19973,-2.47019 -1.75081,-1.50152 -2.06422,1.28911 -4.81169,0.48231 -4.81169,-1.41299 0,-0.73249 0.81627,-2.32776 1.81394,-3.54505 1.58059,-1.92851 2.06511,-2.06015 3.76631,-1.02322 1.74317,1.06249 2.05107,0.93038 2.87356,-1.23291 1.22176,-3.21347 1.32361,-3.06513 -1.9966,-2.90783 -4.02178,0.19053 -5.56025,-2.2476 -3.61514,-5.72924 1.90562,-3.41094 6.21782,-4.05393 7.31403,-1.09061 l 0.76724,2.07406 2.05755,-2.20851 c 1.13164,-1.21469 3.36373,-6.23297 4.96019,-11.15175 3.37739,-10.40598 4.56247,-25.95254 2.8251,-37.06127 -1.1951,-7.64143 -2.70993,-9.32054 -7.64118,-8.46982 -1.80469,0.31134 -4.86328,0.80513 -6.79688,1.09732 -1.93359,0.29218 -3.50916,0.80333 -3.50127,1.1359 0.0682,2.86909 7.69481,3.69429 8.23468,0.89099 0.34451,-1.78894 3.00097,-1.25236 3.00097,0.60616 0,2.51644 -3.48064,4.38654 -7.60849,4.08796 -3.67037,-0.26549 -4.13158,-0.57864 -4.91893,-3.33983 l -0.86882,-3.04688 -7.13,-0.0115 c -3.92151,-0.006 -14.09095,-0.63401 -22.59876,-1.39472 -8.50781,-0.76071 -17.85938,-1.38831 -20.78125,-1.39467 -3.06028,-0.007 -5.46006,-0.45425 -5.66055,-1.05575 -0.21133,-0.63398 -1.77982,-0.0726 -3.99272,1.42916 -2.22928,1.51284 -3.98097,2.13702 -4.5107,1.60729 -1.17742,-1.17742 0.0759,-4.80478 1.66018,-4.80478 0.70186,0 1.96181,-0.6857 2.79987,-1.52376 1.38304,-1.38303 2.57972,-1.40525 12.9576,-0.24056 9.85927,1.10649 39.19658,1.58355 50.80882,0.82622 2.0625,-0.13452 6.28125,0.0392 9.375,0.38595 5.14869,0.57714 6.02192,0.39432 10.3125,-2.1591 2.57813,-1.5343 11.4375,-6.23939 19.6875,-10.45576 12.75543,-6.51896 15.80664,-8.51368 20.39063,-13.33027 3.42269,-3.59637 5.39062,-6.4675 5.39062,-7.86469 0,-1.98304 -0.41697,-2.20053 -4.21875,-2.20053 -2.32031,0 -4.21875,-0.39515 -4.21875,-0.8781 0,-1.23606 5.67092,-1.66443 8.2124,-0.62035 1.64161,0.67439 2.59151,0.43804 4.21875,-1.04968 2.9826,-2.72687 7.69647,-4.95187 10.49104,-4.95187 3.94422,0 2.89359,-3.10189 -2.81899,-8.32286 -5.43484,-4.96714 -11.70862,-7.61464 -18.0444,-7.61464 -2.85195,0 -3.08145,-0.17403 -1.97989,-1.50133 0.98274,-1.18414 2.24496,-1.37066 5.97417,-0.88285 9.64317,1.26139 12.58258,2.43875 15.5999,6.24842 5.34172,6.74447 8.03045,3.79393 8.5017,-9.32956 0.27956,-7.78555 0.11412,-8.89287 -1.50574,-10.07812 -1.00089,-0.73236 -2.75868,-1.33156 -3.90618,-1.33156 -1.18834,0 -2.88304,-1.09365 -3.93725,-2.54085 -1.67891,-2.30477 -2.08226,-2.43543 -4.34106,-1.40625 -3.41655,1.55668 -4.58112,1.43506 -7.08945,-0.7404 -2.52764,-2.19221 -2.57948,-2.19715 -5.58528,-0.53274 -1.5987,0.88524 -2.99686,1.0124 -4.56716,0.41537 -1.50883,-0.57365 -2.69158,-0.50485 -3.54862,0.20642 -1.97742,1.64113 -3.48451,8.1303 -3.56754,15.36106 -0.069,6.00566 -0.23808,6.5454 -2.05611,6.5625 -1.23331,0.0116 -3.19514,1.61084 -5.19811,4.23739 -3.75699,4.92666 -6.16939,5.57143 -10.60006,2.83312 -3.86488,-2.38862 -4.81134,-4.84472 -3.28599,-8.52723 1.21164,-2.92517 4.26177,-3.70299 6.34637,-1.61839 1.80704,1.80704 1.35963,-0.64443 -0.51563,-2.82519 -1.28129,-1.49004 -4.00199,-2.25204 -12.42187,-3.47906 -19.70806,-2.87202 -17.54302,-2.97753 -18.61566,0.90725 -0.80989,2.9332 -0.60688,4.05767 1.44757,8.01751 2.36508,4.55858 2.37806,4.70478 1.26615,14.25828 -0.61789,5.30885 -1.30213,10.30622 -1.52055,11.10525 -0.32006,1.17086 0.28581,1.37672 3.12205,1.06078 1.93556,-0.21561 3.94106,-0.72476 4.45669,-1.13146 1.63577,-1.2902 17.52032,-9.35086 18.42705,-9.35086 2.67459,0 16.46121,-7.88502 18.84672,-10.77907 3.39809,-4.12246 5.30892,-3.35352 2.10497,0.84708 -2.66499,3.49399 -2.87351,4.30699 -1.10466,4.30699 1.59786,0 5.83772,4.48195 5.01661,5.30305 -0.34261,0.34263 -1.36382,-0.0447 -2.26932,-0.86075 -3.3593,-3.02741 -6.2412,-2.88568 -15.39099,0.75692 -13.10547,5.21735 -19.75751,8.75247 -22.20114,11.7984 -1.76891,2.20493 -2.83365,2.69402 -5.47723,2.51598 -2.28652,-0.15398 -3.5536,0.26526 -4.17896,1.3827 -1.21672,2.17417 -3.26054,2.02654 -11.80019,-0.85233 -6.62729,-2.23418 -8.21686,-2.41214 -17.59786,-1.97016 -9.48006,0.44664 -10.76656,0.29706 -15.9375,-1.85318 -6.95037,-2.89017 -23.34024,-5.02376 -29.49902,-3.84011 -21.78891,4.18759 -24.44,7.26195 -24.2284,28.09663 l 0.12443,12.25334 3.24008,2.93163 c 1.78204,1.6124 4.38714,5.25194 5.78911,8.08788 1.40196,2.83594 3.94935,7.37557 5.66085,10.08806 1.71151,2.7125 2.88097,5.16267 2.59883,5.44481 -0.51216,0.51216 -8.0118,-9.78645 -11.42829,-15.69347 -1.41243,-2.44204 -1.88639,-2.76223 -2.17958,-1.47244 -0.20607,0.90651 0.0911,3.05956 0.66041,4.78454 0.5693,1.72498 1.2257,4.12611 1.45867,5.33582 0.23298,1.20972 1.06441,2.55811 1.84764,2.99643 0.78324,0.43832 2.11203,2.14707 2.9529,3.79722 0.84085,1.65016 3.50478,5.74247 5.91983,9.09403 6.97285,9.67679 10.14104,15.83246 8.63399,16.77552 -0.94376,0.59057 -1.14863,2.56674 -0.81424,7.85405 0.24576,3.88571 0.70824,7.4879 1.02773,8.00485 0.3195,0.51696 2.79528,1.22771 5.50174,1.57945 5.88065,0.76428 32.80549,8.5068 36.79582,10.58104 4.3428,2.25746 14.81276,5.76676 15.65396,5.24687 0.41376,-0.25571 0.75229,-1.10059 0.75229,-1.87749 z m 13.80392,-34.22786 c -3.26569,-1.82758 -1.23558,-8.31143 2.60233,-8.31143 2.91714,0 4.68321,3.00543 3.29275,5.60351 -1.41078,2.63606 -3.9441,3.79974 -5.89508,2.70792 z m 4.00858,-4.09268 c 0,-0.77344 -0.60791,-1.40625 -1.35092,-1.40625 -1.56623,0 -2.62351,1.33807 -1.7486,2.21299 1.12047,1.12046 3.09952,0.60535 3.09952,-0.80674 z m -3.829,-10.52031 c -1.33027,-3.49885 0.24123,-6.82344 3.22536,-6.82344 2.79453,0 4.58801,2.05842 4.58801,5.26576 0,4.6441 -6.17209,5.87458 -7.81337,1.55768 z m 5.53189,-1.82926 c -0.34058,-2.87701 -2.36263,-3.99637 -3.21353,-1.77895 -0.59575,1.5525 1.07826,4.28477 2.62521,4.28477 0.48673,0 0.75148,-1.12762 0.58832,-2.50582 z m -4.83699,-11.8019 c -2.4293,-1.77635 -1.79911,-6.6841 0.90787,-7.0703 2.72698,-0.38904 5.20289,2.32591 4.85525,5.32401 -0.3309,2.85375 -3.10077,3.69304 -5.76312,1.74629 z m 37.31281,64.06 c 0.29666,-0.48 0.14869,-1.11418 -0.32882,-1.4093 -1.10836,-0.685 -3.84989,0.34386 -3.84989,1.44482 0,1.10953 3.48936,1.07987 4.17871,-0.0355 z m -5.55338,-4.00262 c 0.24677,-0.24676 -0.40177,-1.21829 -1.44119,-2.15895 -1.63539,-1.48001 -2.198,-1.54538 -4.1784,-0.48551 -3.00028,1.6057 -10.12873,0.63845 -13.62092,-1.84821 -2.75666,-1.96291 -4.69732,-2.42444 -4.69732,-1.11712 0,1.4282 7.56502,5.02484 11.87771,5.64703 4.73738,0.68345 11.35989,0.663 12.06012,-0.0372 z m 15.81136,-1.01073 c 1.26354,-2.04127 -0.74068,-3.6619 -3.64765,-2.94952 -1.03553,0.25377 -3.55402,-0.3966 -5.59664,-1.44526 -6.13301,-3.14862 -7.40465,-2.40364 -4.729,2.77049 1.0875,2.103 2.18857,2.79564 4.92187,3.09614 5.79558,0.63718 7.96423,0.28454 9.05142,-1.47185 z m -102.53387,-3.43696 c -1.00605,-1.87982 -2.84032,-2.65353 -2.84032,-1.19807 0,0.4009 0.71198,1.74541 1.58219,2.9878 1.80466,2.5765 2.82106,1.13063 1.25813,-1.78973 z m 75.39682,-1.13996 c 3.75257,-1.70978 2.87886,-2.98016 -1.56132,-2.27015 -4.49305,0.71847 -4.9187,0.96582 -4.05812,2.35827 0.80091,1.29589 2.64536,1.26696 5.61944,-0.0881 z m 28.47218,-3.4528 c 3.94924,-4.9437 3.46599,-5.53371 -3.11557,-3.80385 -6.60358,1.73564 -11.08533,0.5556 -12.06108,-3.17569 -0.41666,-1.59332 -0.73832,-1.71545 -1.92473,-0.73082 -1.23911,1.02837 -0.97079,1.61629 2.06193,4.51805 1.9175,1.83471 4.54107,3.90635 5.83013,4.60364 2.79339,1.51103 7.44417,0.7983 9.20932,-1.41133 z m 1.84811,-9.39978 c 1.99898,-2.51698 -0.27509,-8.55943 -3.22134,-8.55943 -0.89368,0 -1.1395,-0.67659 -0.77436,-2.13142 0.91129,-3.63086 -0.79615,-6.42008 -4.77863,-7.80623 -3.58523,-1.24788 -6.9706,-1.70147 -6.9706,-0.93397 0,0.20812 1.34588,1.89858 2.99082,3.75659 2.02089,2.28263 3.52444,3.20882 4.63622,2.85596 2.06003,-0.65383 3.12604,4.03155 2.47019,10.85715 -0.43928,4.57164 -0.41936,4.6121 1.99515,4.05364 1.34138,-0.31026 2.98503,-1.25179 3.65255,-2.09229 z M 316.875,251.71875 c 0,-0.77344 -0.63281,-1.40625 -1.40625,-1.40625 -0.77344,0 -1.40625,0.63281 -1.40625,1.40625 0,0.77344 0.63281,1.40625 1.40625,1.40625 0.77344,0 1.40625,-0.63281 1.40625,-1.40625 z m 24.375,-17.8125 c 2.20771,-1.26204 2.22798,-1.34174 0.34916,-1.37303 -1.09701,-0.0183 -2.51976,0.59959 -3.16166,1.37303 -1.45659,1.75508 -0.25771,1.75508 2.8125,0 z M 315.49444,152.8125 c 0.18367,-2.83594 0.61226,-8.00391 0.9524,-11.48438 C 316.87264,136.97135 316.7436,135 316.03265,135 315.46469,135 315,135.42187 315,135.9375 c 0,0.51562 -0.42991,0.9375 -0.95536,0.9375 -0.55092,0 -0.70633,-0.9922 -0.36712,-2.34375 1.08025,-4.30406 -2.32915,-2.31069 -7.875,4.60427 -1.83591,2.28914 -4.14402,10.81176 -3.55916,13.14204 0.32734,1.30419 2.12721,2.75448 4.9936,4.02371 6.86241,3.03868 7.86207,2.61632 8.25748,-3.48877 z m -20.88507,0.94417 c 4.39997,-0.007 4.453,-0.043 4.44196,-3.05355 -0.0172,-4.70871 -5.37441,-13.22157 -11.62696,-18.47605 -6.76184,-5.68248 -10.88211,-7.72152 -16.74752,-8.28803 l -4.47941,-0.43265 0.22088,11.13743 c 0.12148,6.12558 0.0278,11.93994 -0.2081,12.92079 -0.34638,1.43999 0.74432,2.29422 5.66478,4.43662 5.22166,2.27354 6.96584,2.58949 12.1875,2.20768 3.35156,-0.24507 8.09766,-0.44858 10.54688,-0.45224 z m 58.16253,-21.35165 c 2.45531,-2.71309 5.30896,-9.82579 5.3531,-13.34252 0.0227,-1.80469 0.80551,-4.96875 1.73968,-7.03125 0.93418,-2.0625 1.96932,-4.80469 2.30032,-6.09375 0.41976,-1.63476 2.6648,-3.56251 7.42153,-6.372647 6.14068,-3.62775 7.23978,-3.971597 11.03847,-3.4533 9.44979,1.289316 16.77847,4.170797 21.68014,8.524177 2.62065,2.32751 4.99455,4.00208 5.27535,3.72128 0.60171,-0.60172 -4.39256,-8.04451 -5.39802,-8.04451 -0.37815,0 -2.84482,-1.71765 -5.4815,-3.817003 -2.63668,-2.099363 -8.49257,-5.312352 -13.01309,-7.139992 -7.41386,-2.997408 -8.83225,-3.272321 -14.47693,-2.805933 -9.24147,0.763567 -11.43194,2.222883 -13.2931,8.855987 -0.84857,3.024282 -1.54931,6.103841 -1.5572,6.843441 -0.0384,3.60348 -1.15485,3.77489 -12.23599,1.87877 -9.63328,-1.64838 -10.93809,-1.69087 -12.88824,-0.41968 -3.46006,2.25538 -9.64115,8.98396 -9.27155,10.09278 0.48321,1.44962 29.77057,6.13103 31.832,5.08816 0.90235,-0.4565 1.64063,-1.64406 1.64063,-2.63903 0,-2.67287 -1.73208,-3.38896 -12.42188,-5.13555 -1.93359,-0.31593 -3.51562,-1.03836 -3.51562,-1.6054 0,-1.02727 10.31509,-0.54845 14.55274,0.67552 1.54126,0.44517 2.28528,-0.25249 3.97218,-3.72465 1.14165,-2.34983 2.5482,-4.27242 3.1257,-4.27242 0.58386,0 0.79058,0.676 0.46565,1.52275 -0.32138,0.83752 -1.23719,4.52892 -2.03511,8.20313 -2.00888,9.25027 -3.13162,11.83662 -5.13831,11.83662 -1.29311,0 -1.77491,0.84878 -1.99563,3.51563 -0.25505,3.08172 -0.61941,3.55322 -2.95216,3.82028 -2.48891,0.28494 -2.5496,0.38922 -0.9375,1.61081 2.3513,1.78173 4.42604,1.68434 6.21434,-0.2917 z m -73.75795,-11.23314 c -0.26808,-0.90235 -0.76412,-2.80079 -1.10231,-4.21875 -0.62196,-2.60773 -2.53204,-3.28523 -4.94679,-1.75463 -1.52327,0.96553 -1.09456,4.9674 0.59167,5.52294 0.88426,0.29134 1.05702,-0.32362 0.63779,-2.27031 l -0.57498,-2.66988 1.94034,2.21323 c 1.06718,1.21729 1.94033,2.79932 1.94033,3.51563 0,0.71631 0.4503,1.30239 1.00068,1.30239 0.55037,0 0.78134,-0.73828 0.51327,-1.64062 z m 130.45621,-2.86362 c 0.4542,-1.3626 -1.31171,-1.50148 -2.13586,-0.16797 -1.19989,1.94146 -2.32273,-0.23868 -1.84767,-3.5875 0.48497,-3.41877 0.41133,-3.5106 -6.3261,-7.88853 -5.62486,-3.65499 -8.0462,-4.6178 -13.84803,-5.50644 -7.20589,-1.1037 -15,-0.0627 -15,2.00331 0,1.26805 3.42222,1.12196 5.60164,-0.23911 1.52605,-0.95303 2.28814,-0.79895 4.63682,0.9375 3.02077,2.23335 5.23888,2.6435 6.16779,1.14048 0.95547,-1.54598 4.02962,-1.06211 5.88161,0.92578 0.95475,1.0248 3.39697,2.43323 5.42715,3.12984 3.42663,1.17576 3.78127,1.63962 4.94706,6.47069 1.19448,4.94996 1.37466,5.17235 3.68891,4.55342 1.3382,-0.35789 2.60121,-1.15505 2.80668,-1.77147 z M 242.17252,77.109375 c 1.36408,-1.208767 1.95983,-1.330617 2.26327,-0.462908 0.52208,1.492892 2.12671,0.562541 2.12671,-1.233045 0,-0.743008 -0.77068,-1.350922 -1.71263,-1.350922 -1.36965,0 -1.62997,-0.563241 -1.29985,-2.8125 0.24167,-1.64659 -0.007,-2.8125 -0.6017,-2.8125 -0.55796,0 -0.76199,0.65798 -0.45338,1.462177 0.36583,0.953347 -0.0758,1.62871 -1.2689,1.940729 -1.38484,0.362144 -1.81354,1.260056 -1.76238,3.691313 0.078,3.705033 0.21686,3.785937 2.70886,1.577656 z M 250.611,66.58965 c -0.73449,-0.809968 -2.1446,2.284652 -2.15915,4.738475 -0.0248,4.185752 1.36533,4.024955 1.97576,-0.228534 0.32111,-2.237587 0.40365,-4.267061 0.18339,-4.509941 z m 3.33724,-1.81169 c 0.71059,-0.45008 1.00209,-1.287371 0.64779,-1.860645 -0.9887,-1.59975 -2.1374,-1.242868 -2.68017,0.832685 -0.53107,2.030811 0.0139,2.306446 2.03238,1.02796 z m 7.86814,-26.995953 c 2.58187,-0.521004 4.54047,-2.157007 2.58233,-2.157007 -0.56345,0 -1.89563,-1.476563 -2.96043,-3.28125 -2.06312,-3.496718 -3.62578,-4.255346 -3.62578,-1.760208 0,2.48042 -2.58735,-0.236748 -3.29548,-3.460821 -0.33192,-1.511247 -1.0067,-2.747721 -1.4995,-2.747721 -0.56264,0 -0.56949,0.610391 -0.0185,1.640625 0.48266,0.902344 1.40055,4.299728 2.03974,7.549741 0.94424,4.80107 1.4451,5.79958 2.67103,5.324971 0.82988,-0.321279 2.6778,-0.820029 4.10651,-1.10833 z M 267.78597,23.90625 C 268.08278,23.132812 268.8517,22.5 269.49472,22.5 c 0.78975,0 0.43724,-1.529257 -1.08636,-4.712819 -2.49099,-5.204953 -4.72035,-5.597856 -2.57072,-0.453067 1.69514,4.057044 1.69903,5.165886 0.0181,5.165886 -0.73246,0 -1.60974,-1.265625 -1.94949,-2.8125 -0.33975,-1.546875 -1.00609,-2.8125 -1.48074,-2.8125 -1.14939,0 -1.11059,0.280774 0.64503,4.668529 1.52924,3.82193 3.73196,4.925628 4.71543,2.362721 z m 5.41273,-6.379116 c -1.47328,-4.323849 -2.80368,-6.047157 -3.85601,-4.994821 -0.29291,0.292911 -0.0652,1.70625 0.50602,3.140751 0.57122,1.434503 1.48742,3.83704 2.03602,5.338973 1.75127,4.794603 3.00348,1.47352 1.31397,-3.484903 z m 13.74244,2.02094 c 10.4716,-2.386201 33.59861,-2.848141 41.96279,-0.838167 6.63029,1.593307 7.54351,0.519261 3.87012,-4.551708 -4.47039,-6.1711944 -7.44537,-6.9998791 -22.46155,-6.2566918 -14.11201,0.698438 -23.24183,2.0251291 -25.22185,3.6650908 -0.72358,0.599309 -3.18103,1.142412 -5.461,1.206895 -4.38157,0.123923 -7.23691,1.745767 -5.24301,2.978061 0.59933,0.370412 1.37982,1.829408 1.73441,3.242212 0.35459,1.412804 0.94515,2.568734 1.31234,2.568734 0.3672,0 4.64569,-0.906492 9.50775,-2.014426 z M 277.96875,9.375 c 0.31867,-0.515625 1.37336,-0.9375 2.34375,-0.9375 0.97039,0 2.02508,-0.421875 2.34375,-0.9375 1.06928,-1.7301377 -4.90452,-0.974162 -7.16177,0.90631 l -2.21323,1.84381 2.05404,0.03119 c 1.12973,0.01716 2.31479,-0.390685 2.63346,-0.90631 z m 25.26562,-5.5626108 c -0.52119,-0.5121109 -2.2517,-0.5519171 -4.17187,-0.095964 l -3.28125,0.7791469 4.17187,0.095964 c 2.59307,0.059648 3.83483,-0.2352135 3.28125,-0.7791469 z M 315.46875,3.75 c 0.36203,-0.5857662 -1.28796,-0.8875871 -4.39779,-0.8044638 l -4.97721,0.1330362 3.75,0.6714276 c 2.0625,0.3692852 4.04151,0.7312939 4.39779,0.8044638 0.35629,0.07317 0.90854,-0.2888388 1.22721,-0.8044638 z m 22.96875,254.15422 c 0,-1.44883 5.67222,-2.97493 7.37062,-1.98306 1.31276,0.76667 1.23752,0.90097 -0.51841,0.92533 -1.12973,0.0157 -2.31479,0.45038 -2.63346,0.96601 -0.72163,1.16762 -4.21875,1.24364 -4.21875,0.0917 z M 246.1377,112.31834 c -3.01146,-1.74687 -20.9947,-3.43819 -47.7422,-4.49014 -13.85903,-0.54506 -25.50924,-1.18323 -25.88936,-1.41815 -0.38012,-0.23493 -17.93934,-0.58594 -39.0205,-0.78002 -37.40494,-0.34437 -38.336149,-0.39787 -38.609506,-2.2179 -0.397228,-2.64481 9.412936,-6.913614 18.063326,-7.860086 32.15293,-3.51797 35.9045,-3.721821 69.87304,-3.796724 21.15952,-0.04666 38.14222,0.337997 42.65625,0.966156 4.125,0.574024 9.82031,1.14574 12.65625,1.270474 2.88945,0.127097 5.03876,0.638944 4.889,1.1643 -0.29107,1.021003 -7.26309,0.924019 -27.389,-0.380972 -21.20035,-1.374651 -68.18033,-0.382397 -88.59375,1.871175 -23.57036,2.602088 -23.32093,2.562591 -25.29258,4.004297 -1.44868,1.0593 2.60075,1.35178 26.3215,1.90115 15.41847,0.35708 35.62733,1.0635 44.90858,1.5698 9.28125,0.50631 21.30469,1.10087 26.71875,1.32127 28.34766,1.15395 34.7314,1.61556 40.3125,2.91502 3.35156,0.78035 7.25391,1.65754 8.67187,1.94932 1.41797,0.29178 2.57813,1.11543 2.57813,1.83035 0,1.55898 -2.57908,1.65014 -5.1123,0.18068 z m 97.75402,-54.299316 c -0.25278,-2.650646 0.0291,-4.008288 0.90204,-4.343234 1.99911,-0.767132 2.81171,0.869879 2.32488,4.683585 -0.61245,4.797862 -2.7585,4.571513 -3.22692,-0.340351 z m -74.7733,-2.44815 c -0.54063,-1.946794 -0.98532,-4.07741 -0.98819,-4.734703 -0.003,-0.657294 -1.05992,-1.59607 -2.34898,-2.086171 -2.29378,-0.872094 -3.04104,-2.291274 -1.64063,-3.115847 2.87252,-1.691351 7.73438,4.633449 7.73438,10.061657 0,3.771952 -1.69574,3.695096 -2.75658,-0.124936 z m -12.47061,0.324955 c -3.47652,-1.094268 -6.32417,-2.254803 -6.32813,-2.578967 -0.0262,-2.146022 10.5226,-3.387414 12.88345,-1.51614 1.27408,1.009872 1.60555,5.026764 0.46875,5.680404 -0.38672,0.222355 -3.54755,-0.491028 -7.02407,-1.585297 z M 288,54.1875 c -0.61875,-0.61875 -1.125,-1.745688 -1.125,-2.504305 0,-0.758619 -0.63441,-2.080315 -1.40978,-2.937102 -1.05199,-1.162428 -1.25385,-2.695485 -0.79538,-6.040416 0.5414,-3.949959 0.98385,-4.63698 3.72342,-5.781648 4.82096,-2.014326 10.00073,-1.672325 12.27307,0.810346 1.06187,1.160156 2.20748,3.023805 2.54581,4.141442 1.17804,3.891584 4.2883,6.874183 7.1684,6.874183 1.50945,0 2.74446,0.413838 2.74446,0.919639 0,1.454187 -4.79902,2.274242 -6.62729,1.132468 -1.3183,-0.823295 -2.67802,-0.471715 -6.65538,1.720871 -5.25239,2.89547 -9.95096,3.555888 -11.84233,1.664522 z m 9.77997,-3.638962 c 2.54136,-1.57065 3.15753,-2.548498 3.15753,-5.010949 0,-4.935754 -5.92677,-8.509759 -10.26319,-6.188981 -1.97902,1.059143 -1.98082,1.087444 -0.16879,2.657842 2.88815,2.503 3.36985,5.516706 1.1076,6.929505 -1.05909,0.661414 -1.92562,1.733902 -1.92562,2.383308 0,1.831155 4.58984,1.394019 8.09247,-0.770725 z m 14.07194,-11.876663 c -0.25406,-0.902344 -0.73148,-2.982568 -1.06093,-4.622721 -0.32946,-1.640152 -1.21259,-3.491327 -1.96253,-4.113723 -2.19712,-1.823444 -10.74041,-0.490049 -14.8862,2.323365 -1.96839,1.335787 -4.54021,2.428704 -5.71515,2.428704 -3.11258,0 -5.1021,0.953033 -5.1021,2.444052 0,2.853806 -2.95388,1.065096 -4.91829,-2.978248 l -2.08142,-4.284197 2.32798,-1.788707 c 2.27089,-1.744837 5.60923,-2.459672 5.60923,-1.201095 0,0.346119 -0.70722,1.410775 -1.5716,2.365902 -1.15385,1.275 -1.29432,2.013875 -0.52843,2.779761 0.76588,0.765886 1.96721,0.497964 4.51957,-1.007967 1.91203,-1.128122 4.1077,-1.808882 4.87928,-1.512799 0.77158,0.296083 2.44995,-0.147735 3.7297,-0.986263 1.47463,-0.966212 4.57986,-1.574881 8.47844,-1.661892 6.00466,-0.134018 6.20346,-0.0612 8.32232,3.048218 1.34232,1.969839 2.17072,4.563706 2.17072,6.796875 0,3.692323 -1.37957,4.922206 -2.21059,1.970735 z"
     id="path4174"
     inkscape:connector-curvature="0" />
</svg>
